<svg xmlns="http://www.w3.org/2000/svg" version="1.1" xmlns:xlink="http://www.w3.org/1999/xlink" xmlns:svgjs="http://svgjs.com/svgjs" width="1000" height="1000"><rect width="1000" height="1000" rx="200" ry="200" fill="#555555"></rect><g transform="matrix(14.925373134328359,0,0,14.925373134328359,0,0)"><svg xmlns="http://www.w3.org/2000/svg" version="1.1" xmlns:xlink="http://www.w3.org/1999/xlink" xmlns:svgjs="http://svgjs.com/svgjs" width="67" height="67"><svg width="67.000000" height="67.000000" viewBox="0 0 67 67" fill="none" xmlns="http://www.w3.org/2000/svg" xmlns:xlink="http://www.w3.org/1999/xlink">
	<desc>
			Created with Pixso.
	</desc>
	<defs>
		<clipPath id="clip51_86">
			<rect id="computer-logo-for-a-programmer-with-the-letter-l- 1" rx="-0.500000" width="66.000000" height="66.000000" transform="translate(0.500000 0.500000)" fill="white" fill-opacity="0"></rect>
		</clipPath>
	</defs>
	<rect id="computer-logo-for-a-programmer-with-the-letter-l- 1" rx="-0.500000" width="66.000000" height="66.000000" transform="translate(0.500000 0.500000)" fill="#FFFFFF" fill-opacity="0"></rect>
	<g clip-path="url(#clip51_86)">
		<path id="Vector" d="M12.56 10.46C13.26 10.47 13.96 10.49 14.65 10.46C14.65 11.15 14.65 11.84 14.66 12.53C13.96 12.53 13.26 12.51 12.57 12.55C12.54 11.86 12.56 11.15 12.56 10.46Z" fill="#C6F91F" fill-opacity="1.000000" fill-rule="nonzero"></path>
		<path id="Vector" d="M27.22 51.29C29.01 51.31 30.81 51.29 32.6 51.29L39.78 51.29L39.78 54.43C35.59 54.49 31.4 54.39 27.21 54.44C27.22 53.39 27.2 52.34 27.22 51.29Z" fill="#C6F91F" fill-opacity="1.000000" fill-rule="nonzero"></path>
		<path id="Vector" d="M23.04 56.53L43.97 56.53L43.97 58.62C40.47 58.57 36.97 58.61 33.47 58.61C29.99 58.61 26.5 58.57 23.03 58.63C23.02 57.93 23.03 57.23 23.04 56.53Z" fill="#C6F91F" fill-opacity="1.000000" fill-rule="nonzero"></path>
		<path id="Vector" d="M14.66 8.39C15.03 8.33 15.44 8.37 15.82 8.37L18.14 8.38L26.3 8.37L43.42 8.38L49.04 8.37C50.14 8.37 51.25 8.35 52.34 8.39C52.34 9.07 52.39 9.79 52.33 10.46L26.11 10.46L18.39 10.45C17.15 10.45 15.89 10.49 14.65 10.44C14.65 9.76 14.63 9.07 14.66 8.39Z" fill="#C6F91F" fill-opacity="1.000000" fill-rule="nonzero"></path>
		<path id="Vector" d="M10.5 12.56C11.18 12.54 11.87 12.57 12.56 12.55L12.56 43.97L39.93 43.97L49.52 43.97C51.16 43.98 52.8 43.93 54.43 43.98L54.44 12.56C55.13 12.57 55.83 12.56 56.52 12.56L56.52 17.78L56.53 47.1C55.83 47.12 55.12 47.1 54.42 47.1C54.45 47.8 54.42 48.5 54.43 49.2C52.97 49.17 51.5 49.19 50.03 49.18L37.2 49.19L12.56 49.2C12.56 48.5 12.56 47.8 12.56 47.1C11.86 47.1 11.16 47.1 10.47 47.11L10.46 23.93L10.46 16.49L10.47 14.15C10.47 13.62 10.45 13.09 10.5 12.56Z" fill="#C6F91F" fill-opacity="1.000000" fill-rule="nonzero"></path>
		<path id="Vector" d="M52.33 10.46C53.03 10.47 53.74 10.43 54.43 10.49L54.44 12.53C53.75 12.54 53.05 12.57 52.37 12.53C52.31 14.05 52.34 15.58 52.34 17.1L52.34 24.89L52.34 36.15C52.34 38.06 52.31 39.97 52.34 41.87L16.71 41.87C16.03 41.87 15.34 41.85 14.65 41.88L14.65 22.3L14.66 15.8C14.66 14.72 14.68 13.64 14.65 12.56L38.77 12.56L47.57 12.56C49.15 12.57 50.76 12.61 52.34 12.55C52.32 11.86 52.31 11.15 52.33 10.46ZM16.72 14.62C16.77 17.5 16.72 20.39 16.72 23.26L16.74 39.78L36.73 39.79L45.55 39.78C47.12 39.78 48.68 39.8 50.25 39.78L50.24 22.18C50.24 19.66 50.27 17.14 50.24 14.62L28.4 14.64L20.71 14.62C19.38 14.62 18.04 14.67 16.72 14.62Z" fill="#C6F91F" fill-opacity="1.000000" fill-rule="nonzero"></path>
		<path id="Vector" d="M45.01 35.6C45.71 35.6 46.41 35.59 47.11 35.59L47.11 37.67C46.41 37.66 45.71 37.67 45.01 37.68L45.01 35.6Z" fill="#C6F91F" fill-opacity="1.000000" fill-rule="nonzero"></path>
		<path id="Vector" d="M19.92 26.17L21.98 26.17L21.98 28.26L19.89 28.26C19.88 27.58 19.82 26.84 19.92 26.17Z" fill="#C6F91F" fill-opacity="1.000000" fill-rule="nonzero"></path>
		<path id="Vector" d="M19.93 30.35C20.61 30.38 21.3 30.36 21.98 30.36C21.98 31.04 22.04 31.77 21.97 32.44C21.28 32.45 20.58 32.44 19.88 32.45C19.91 31.77 19.81 31.03 19.93 30.35Z" fill="#C6F91F" fill-opacity="1.000000" fill-rule="nonzero"></path>
		<path id="Vector" d="M19.88 17.79L21.98 17.79L21.98 19.88C21.29 19.88 20.59 19.88 19.89 19.89C19.87 19.19 19.88 18.49 19.88 17.79Z" fill="#C6F91F" fill-opacity="1.000000" fill-rule="nonzero"></path>
		<path id="Vector" d="M19.91 21.98L21.98 21.99C21.98 22.68 21.96 23.38 21.99 24.07C21.29 24.07 20.59 24.07 19.89 24.08C19.88 23.39 19.83 22.65 19.91 21.98Z" fill="#C6F91F" fill-opacity="1.000000" fill-rule="nonzero"></path>
		<path id="Vector" d="M19.89 34.54C20.59 34.54 21.29 34.54 21.99 34.55C21.97 35.24 21.98 35.94 21.98 36.63C21.28 36.65 20.58 36.63 19.88 36.64L19.89 34.54Z" fill="#C6F91F" fill-opacity="1.000000" fill-rule="nonzero"></path>
		<path id="Vector" d="M26.18 16.75L32.45 16.75L32.44 27.99L32.44 31.01C32.44 31.47 32.49 32 32.42 32.45L42.92 32.45L42.92 35.89C42.92 36.47 42.97 37.1 42.91 37.68L32.31 37.68C30.26 37.68 28.21 37.65 26.17 37.69C26.13 36.55 26.15 35.4 26.15 34.26L26.15 27.82L26.16 21.03C26.16 19.6 26.13 18.17 26.18 16.75Z" fill="#C6F91F" fill-opacity="1.000000" fill-rule="nonzero"></path>
	</g>
</svg></svg></g></svg>