<svg width="40" height="41" viewBox="0 0 40 41" fill="none" xmlns="http://www.w3.org/2000/svg">
<path d="M39.9023 37.5477L38.2047 31.545C37.8701 30.3621 37.9309 29.097 38.4116 27.9659C39.5251 25.3471 40.097 22.4449 39.9875 19.3962C39.6103 8.8114 30.9276 0.275245 20.3617 0.0862306C9.0292 -0.114979 -0.198063 9.1315 0.00272783 20.4876C0.19135 31.0755 8.70976 39.7763 19.2695 40.1543C21.9285 40.2488 24.4749 39.822 26.8205 38.9684C28.6885 38.2886 30.7177 38.1727 32.6282 38.7184L37.3803 40.072C38.9166 40.511 40.3374 39.0873 39.9023 37.5477ZM11.0645 20.1248C11.0645 15.18 15.0651 11.171 19.9997 11.171C24.9343 11.171 28.9349 15.18 28.9349 20.1248C28.9349 25.0697 24.9343 29.0787 19.9997 29.0787C15.0651 29.0787 11.0645 25.0697 11.0645 20.1248Z" fill="url(#paint0_linear_10103_7)"/>
<path d="M37.8917 29.1645C37.8917 29.1645 37.8217 28.9419 37.6848 28.5456C36.62 25.5214 31.442 12.4275 21.2047 11.2568C25.5704 11.8452 28.9352 15.592 28.9352 20.1253C28.9352 25.0702 24.9346 29.0791 20 29.0791V40.1639C22.3943 40.1639 24.6912 39.7462 26.8208 38.9719C28.6888 38.292 30.718 38.1762 32.6285 38.7219L37.3806 40.0755C38.917 40.5114 40.3377 39.0908 39.9027 37.5482L38.2051 31.5454C38.0043 30.8412 37.9495 30.1034 38.0377 29.387L37.8917 29.1645Z" fill="url(#paint1_linear_10103_7)"/>
<defs>
<linearGradient id="paint0_linear_10103_7" x1="4.85174" y1="0.0830214" x2="40.3763" y2="3.04735" gradientUnits="userSpaceOnUse">
<stop stop-color="#DF5950"/>
<stop offset="1" stop-color="#451046"/>
</linearGradient>
<linearGradient id="paint1_linear_10103_7" x1="22.4239" y1="11.2568" x2="40.2338" y2="12.2863" gradientUnits="userSpaceOnUse">
<stop stop-color="#DF5950"/>
<stop offset="1" stop-color="#451046"/>
</linearGradient>
</defs>
</svg>
