<svg width="120" height="120" viewBox="0 0 120 120" fill="none" xmlns="http://www.w3.org/2000/svg">
<g id="html">
<path d="M22.1325 102.004L13.7062 7.5H106.294L97.8562 101.989L59.9437 112.5L22.1325 102.004Z" fill="#E44F26"/>
<path d="M60 104.468L90.6375 95.9738L97.845 15.2288H60V104.468Z" fill="#F1662A"/>
<path d="M60 50.2762H44.6625L43.605 38.4075H60V26.8162H30.9375L31.215 29.9287L34.0613 61.8675H60V50.2762V50.2762ZM60 80.3775L59.9475 80.3925L47.04 76.9087L46.215 67.665H34.5787L36.2025 85.86L59.9475 92.4525L60 92.4375V80.3775Z" fill="#EBEBEB"/>
<path d="M59.9587 50.2762V61.8675H74.2312L72.8887 76.9012L59.9587 80.3887V92.4487L83.7225 85.86L83.895 83.9025L86.6175 53.3887L86.9025 50.2762H59.9587V50.2762ZM59.9587 26.8162V38.4075H87.9562L88.1887 35.805L88.7175 29.9287L88.995 26.8162H59.9587V26.8162Z" fill="white"/>
</g>

<g id="github">
<path fill-rule="evenodd" clip-rule="evenodd" d="M44 0C19.69 0 0 19.69 0 44C0 63.47 12.595 79.915 30.085 85.745C32.285 86.13 33.11 84.81 33.11 83.655C33.11 82.61 33.055 79.145 33.055 75.46C22 77.495 19.14 72.765 18.26 70.29C17.765 69.025 15.62 65.12 13.75 64.075C12.21 63.25 10.01 61.215 13.695 61.16C17.16 61.105 19.635 64.35 20.46 65.67C24.42 72.325 30.745 70.455 33.275 69.3C33.66 66.44 34.815 64.515 36.08 63.415C26.29 62.315 16.06 58.52 16.06 41.69C16.06 36.905 17.765 32.945 20.57 29.865C20.13 28.765 18.59 24.255 21.01 18.205C21.01 18.205 24.695 17.05 33.11 22.715C36.63 21.725 40.37 21.23 44.11 21.23C47.85 21.23 51.59 21.725 55.11 22.715C63.525 16.995 67.21 18.205 67.21 18.205C69.63 24.255 68.09 28.765 67.65 29.865C70.455 32.945 72.16 36.85 72.16 41.69C72.16 58.575 61.875 62.315 52.085 63.415C53.68 64.79 55.055 67.43 55.055 71.555C55.055 77.44 55 82.17 55 83.655C55 84.81 55.825 86.185 58.025 85.745C66.7597 82.796 74.3497 77.1822 79.7268 69.6937C85.1039 62.2052 87.9974 53.219 88 44C88 19.69 68.31 0 44 0Z" fill="#505054"/>
</g>

<g id="figma">

<path d="M13.8543 79.0625C21.0418 79.0625 26.875 73.2293 26.875 66.0418V53.0207H13.8543C6.66685 53.0207 0.833252 58.8543 0.833252 66.0418C0.833252 73.2293 6.66685 79.0625 13.8543 79.0625Z" fill="#0ACF83"/>
<path d="M0.833252 40C0.833252 32.8125 6.66685 26.9793 13.8543 26.9793H26.875V53.0207H13.8543C6.66685 53.0207 0.833252 47.1875 0.833252 40Z" fill="#A259FF"/>
<path d="M0.833252 13.9582C0.833252 6.7707 6.66685 0.9375 13.8543 0.9375H26.875V26.9793H13.8543C6.66685 26.9793 0.833252 21.1457 0.833252 13.9582Z" fill="#F24E1E"/>
<path d="M26.875 0.9375H39.8957C47.0832 0.9375 52.9168 6.7707 52.9168 13.9582C52.9168 21.1457 47.0832 26.9793 39.8957 26.9793H26.875V0.9375Z" fill="#FF7262"/>
<path d="M52.9168 40C52.9168 47.1875 47.0832 53.0207 39.8957 53.0207C32.7082 53.0207 26.875 47.1875 26.875 40C26.875 32.8125 32.7082 26.9793 39.8957 26.9793C47.0832 26.9793 52.9168 32.8125 52.9168 40Z" fill="#1ABCFE"/>

</g>

<g id="git">
<g clip-path="url(#clip0_1_51)">
<path d="M103.02 47.8219L57.1758 1.98038C54.5372 -0.6598 50.2552 -0.6598 47.6134 1.98038L38.0937 11.5001L50.1699 23.5763C52.9762 22.6281 56.1943 23.2642 58.4313 25.5012C60.6789 27.7525 61.3106 30.9981 60.3393 33.8134L71.9775 45.452C74.7932 44.482 78.0421 45.1095 80.291 47.3621C83.434 50.5039 83.434 55.596 80.291 58.7399C77.1471 61.8841 72.055 61.8841 68.9095 58.7399C66.5454 56.3733 65.9613 52.9013 67.1582 49.9888L56.3046 39.1352L56.3034 67.6973C57.0902 68.0863 57.8088 68.6002 58.4313 69.2189C61.5743 72.3607 61.5743 77.4532 58.4313 80.5995C55.2874 83.7422 50.1929 83.7422 47.0535 80.5995C43.9105 77.4532 43.9105 72.3611 47.0535 69.2193C47.8067 68.4658 48.7019 67.869 49.6871 67.4635V38.6352C48.7004 38.2324 47.8048 37.6353 47.0535 36.8793C44.6722 34.5013 44.0996 31.0071 45.3198 28.0831L33.4154 16.1775L1.98105 47.6099C-0.660352 50.2525 -0.660352 54.5349 1.98105 57.1755L47.8259 103.018C50.4652 105.658 54.7464 105.658 57.3891 103.018L103.019 57.3884C105.66 54.747 105.66 50.4621 103.019 47.8219" fill="#DE4C36"/>
</g>
<defs>
<clipPath id="clip0_1_51">
<rect width="105" height="105" fill="white"/>
</clipPath>
</defs>
</g>

<g id="react">
<g clip-path="url(#clip0_1_53)">
<path d="M92.9055 32.7027C91.7031 32.2886 90.4904 31.9051 89.2687 31.5523C89.4739 30.7106 89.6628 29.8791 89.8305 29.0623C92.5838 15.6483 90.7839 4.84178 84.636 1.28375C78.7415 -2.12722 69.1016 1.42949 59.3659 9.93342C58.4064 10.773 57.4681 11.6368 56.5521 12.524C55.9389 11.934 55.3148 11.3556 54.6803 10.7888C44.4767 1.69616 34.2493 -2.13608 28.1081 1.43215C22.2189 4.85374 20.475 15.0127 22.9537 27.7254C23.2003 28.9844 23.4788 30.237 23.7888 31.4819C22.3411 31.8947 20.9442 32.3342 19.6073 32.8019C7.64439 36.9881 0.00472641 43.5483 0.00472641 50.3529C0.00472641 57.3808 8.20626 64.43 20.6661 68.7043C21.6763 69.0495 22.6948 69.3692 23.7208 69.6634C23.3876 71.0042 23.0918 72.354 22.8337 73.7114C20.4706 86.2035 22.316 96.1223 28.1893 99.5222C34.2555 103.033 44.437 99.4247 54.3506 90.7268C55.1545 90.0196 55.9406 89.2925 56.7084 88.546C57.7004 89.5066 58.7189 90.4393 59.7626 91.343C69.366 99.6365 78.8501 102.985 84.7177 99.5762C90.7781 96.055 92.748 85.3995 90.1907 72.4356C89.9892 71.42 89.7633 70.4094 89.5132 69.4047C90.2282 69.1921 90.93 68.9732 91.6141 68.7455C104.567 64.4384 112.995 57.4747 112.995 50.3529C112.995 43.5235 105.109 36.919 92.9055 32.7027V32.7027ZM90.0962 64.1474C89.4783 64.3525 88.8445 64.5505 88.1983 64.7432C86.7683 60.1995 84.8386 55.3684 82.4769 50.3764C84.7305 45.5036 86.586 40.734 87.9759 36.22C89.1318 36.5558 90.2533 36.9097 91.3347 37.2832C101.791 40.8961 108.169 46.2372 108.169 50.3529C108.169 54.7367 101.281 60.4277 90.0962 64.1474V64.1474ZM85.4557 73.3765C86.5865 79.1087 86.7476 84.2916 85.9985 88.3435C85.3259 91.9844 83.9727 94.4115 82.299 95.3839C78.7385 97.4526 71.1235 94.7637 62.9109 87.6706C61.9401 86.8305 60.9927 85.9634 60.0698 85.0703C63.2539 81.5756 66.4357 77.5131 69.5412 73.0008C75.0036 72.5144 80.1641 71.7188 84.8439 70.6331C85.0694 71.5426 85.2733 72.4573 85.4557 73.3765V73.3765ZM38.5257 95.0264C35.0468 96.2592 32.2759 96.2946 30.6009 95.3254C27.0369 93.2624 25.5552 85.298 27.5762 74.6151C27.8165 73.3527 28.0915 72.0972 28.4011 70.8502C33.0293 71.8779 38.1523 72.6168 43.6275 73.0624C46.7542 77.4776 50.0278 81.5358 53.327 85.0894C52.6259 85.7703 51.9082 86.4338 51.1745 87.0793C46.7904 90.9252 42.3974 93.654 38.5257 95.0264V95.0264ZM22.2277 64.1204C16.7181 62.2302 12.168 59.7738 9.04927 57.0933C6.24658 54.6848 4.83199 52.2932 4.83199 50.3529C4.83199 46.2234 10.9657 40.9564 21.1962 37.3766C22.4378 36.9425 23.7372 36.5327 25.0856 36.1482C26.4997 40.7641 28.3543 45.5904 30.5925 50.4707C28.3252 55.4233 26.4441 60.3267 25.0163 64.997C24.0797 64.7278 23.1499 64.4355 22.2277 64.1204V64.1204ZM27.691 26.7947C25.5675 15.9031 26.9777 7.68706 30.5268 5.62497C34.3067 3.42867 42.6653 6.56011 51.4755 14.4115C52.05 14.9247 52.6152 15.4482 53.1708 15.9819C49.8879 19.52 46.6443 23.548 43.5454 27.9371C38.2313 28.4315 33.1445 29.2253 28.4678 30.2889C28.1796 29.131 27.9206 27.9661 27.691 26.7951V26.7947ZM76.4301 38.8739C75.3255 36.9589 74.1798 35.0679 72.994 33.2024C76.5991 33.66 80.0533 34.2673 83.2969 35.0098C82.3233 38.1425 81.1095 41.4175 79.6808 44.7753C78.6365 42.7867 77.5527 40.8191 76.4301 38.8739V38.8739ZM56.5543 19.4443C58.7806 21.8652 61.0104 24.5678 63.2036 27.5003C58.7546 27.2894 54.2981 27.2886 49.849 27.4977C52.0444 24.5922 54.2932 21.8931 56.5543 19.4443ZM36.551 38.9071C35.4425 40.8367 34.3789 42.792 33.3612 44.7713C31.9559 41.4255 30.7532 38.1355 29.7711 34.9584C32.9949 34.2346 36.4327 33.6427 40.0149 33.1935C38.8159 35.0705 37.6609 36.9754 36.551 38.9067V38.9071ZM40.1177 67.8569C36.4168 67.4423 32.9274 66.881 29.7045 66.1767C30.702 62.9429 31.9312 59.5829 33.367 56.1653C34.3887 58.1461 35.4566 60.1026 36.57 62.033C37.7149 64.0176 38.9004 65.9614 40.1177 67.8569ZM56.6876 81.6027C54.3996 79.1255 52.1177 76.3848 49.8892 73.4372C52.0528 73.5222 54.2583 73.5656 56.5 73.5656C58.8031 73.5656 61.0797 73.5138 63.3205 73.4137C61.1203 76.4145 58.8989 79.1592 56.6876 81.6027ZM79.7262 55.9907C81.2366 59.446 82.5095 62.7883 83.5203 65.9667C80.2444 66.7171 76.7073 67.3214 72.9804 67.7701C74.1746 65.8699 75.3311 63.9461 76.4491 61.9998C77.5858 60.0214 78.6784 58.0179 79.7262 55.9907V55.9907ZM72.268 59.5794C70.5564 62.5634 68.7487 65.4909 66.8475 68.3571C63.4038 68.6018 59.9524 68.7234 56.5 68.7216C52.9837 68.7216 49.5635 68.6118 46.27 68.3974C44.3192 65.5378 42.477 62.6053 40.7471 59.6059H40.7476C39.0259 56.6225 37.4177 53.5745 35.9265 50.4685C37.4139 47.3618 39.0172 44.3124 40.733 41.3267L40.7326 41.3271C42.4477 38.3407 44.2753 35.4206 46.2113 32.5734C49.5714 32.3182 53.0172 32.1853 56.4996 32.1853H56.5C59.9983 32.1853 63.4485 32.3195 66.8078 32.5765C68.7243 35.4195 70.5401 38.3295 72.2521 41.301C73.9736 44.2801 75.5981 47.3147 77.123 50.3999C75.6138 53.5166 73.9944 56.5783 72.268 59.5794V59.5794ZM82.2253 5.48056C86.0087 7.67067 87.4802 16.5024 85.103 28.0842C84.9512 28.8231 84.7808 29.5757 84.5954 30.339C79.9072 29.2528 74.8169 28.4452 69.4874 27.9433C66.3828 23.506 63.1656 19.4717 59.9361 15.9792C60.7825 15.1604 61.649 14.3628 62.5349 13.5871C70.8768 6.30141 78.6731 3.42468 82.2253 5.48056V5.48056ZM56.5 40.2263C62.0723 40.2263 66.5898 44.7603 66.5898 50.3529C66.5898 55.9456 62.0723 60.4795 56.5 60.4795C50.9278 60.4795 46.4103 55.9456 46.4103 50.3529C46.4103 44.7603 50.9278 40.2263 56.5 40.2263V40.2263Z" fill="#00D8FF"/>
</g>
<defs>
<clipPath id="clip0_1_53">
<rect width="113" height="101" fill="white"/>
</clipPath>
</defs>
</g>

<g id="sass">
<g clip-path="url(#clip0_1_55)">
<path d="M100.673 50.0766C96.6031 50.0975 93.0654 51.0694 90.1035 52.5063C89.0163 50.3721 87.9295 48.4708 87.738 47.076C87.5246 45.4493 87.2691 44.4561 87.5246 42.5122C87.7805 40.5683 88.9313 37.8001 88.9098 37.589C88.8888 37.3778 88.6539 36.3846 86.3099 36.3637C83.9659 36.3424 81.9413 36.8073 81.7069 37.42C81.4724 38.0326 81.025 39.4273 80.7266 40.8637C80.3217 42.9771 76.0386 50.5198 73.5881 54.471C72.7993 52.9291 72.1175 51.5765 71.968 50.499C71.7551 48.8722 71.4991 47.879 71.7551 45.9351C72.011 43.9912 73.1617 41.2235 73.1403 41.0119C73.1188 40.8007 72.8843 39.8075 70.5403 39.7866C68.1959 39.7653 66.1713 40.2302 65.9373 40.8429C65.7029 41.4559 65.447 42.8923 64.9571 44.2871C64.4667 45.6818 58.7769 58.275 57.2853 61.5285C56.6824 62.8453 56.0501 64.1487 55.3887 65.4376C55.3887 65.4376 55.3672 65.501 55.3032 65.6066C55.0954 66.0107 54.8824 66.4122 54.6643 66.811V66.8318C54.3444 67.4028 54.0035 67.9307 53.833 67.9307C53.7051 67.9307 53.4706 66.4095 53.8755 64.3387C54.7278 59.9652 56.7524 53.1615 56.7314 52.9291C56.7314 52.8022 57.1148 51.6191 55.4102 51.006C53.7476 50.3934 53.1512 51.4075 53.0017 51.4075C52.8527 51.4075 52.7458 51.7668 52.7458 51.7668C52.7458 51.7668 54.6003 44.118 49.2085 44.118C45.8418 44.118 41.1958 47.7734 38.8943 51.0694C36.278 52.4811 33.6639 53.8968 31.0521 55.3166C29.7953 56.0139 28.4951 56.7113 27.2804 57.3661C27.1949 57.2818 27.1099 57.1758 27.0244 57.0915C20.5034 50.1822 8.44203 45.3012 8.95342 36.0257C9.14537 32.6449 10.3171 23.7705 32.1178 12.9947C50.0609 4.22583 64.3392 6.65549 66.8111 12.0436C70.3484 19.7349 59.1608 34.0183 40.6204 36.0887C33.5455 36.8708 29.8373 34.1661 28.9 33.152C27.9197 32.0953 27.7703 32.0318 27.4079 32.2435C26.8115 32.5606 27.1949 33.5113 27.4079 34.0605C27.9622 35.4969 30.2422 38.0326 34.0994 39.2796C37.5091 40.378 45.7988 40.991 55.8361 37.1454C67.0666 32.8348 75.8467 20.8546 73.2682 10.8183C70.6893 0.633908 53.6411 -2.72556 37.5091 2.95799C27.9197 6.33921 17.52 11.6634 10.0402 18.594C1.15366 26.834 -0.253009 33.997 0.322365 36.9976C2.38987 47.6465 17.2006 54.5771 23.1248 59.7114C22.8264 59.8804 22.549 60.0286 22.315 60.1555C19.3527 61.6132 8.05815 67.4658 5.24526 73.6568C2.04894 80.6716 5.75711 85.7009 8.20759 86.3765C15.8154 88.4686 23.6362 84.7076 27.8343 78.4953C32.0323 72.2834 31.521 64.2119 29.5819 60.5144C29.5604 60.4722 29.5394 60.4296 29.4964 60.3875C30.2637 59.9439 31.0521 59.479 31.8194 59.0354C33.2297 58.2088 34.6578 57.4126 36.1029 56.6474C35.3781 58.6126 34.8452 60.958 34.5898 64.3387C34.2699 68.3113 35.9105 73.4665 38.063 75.4947C39.0223 76.3828 40.1516 76.4037 40.8764 76.4037C43.3908 76.4037 44.5206 74.3329 45.7778 71.8819C47.312 68.8818 48.6972 65.3954 48.6972 65.3954C48.6972 65.3954 46.971 74.8191 51.6595 74.8191C53.3641 74.8191 55.0902 72.6214 55.8576 71.5017V71.5226C55.8576 71.5226 55.9001 71.4592 55.9855 71.3114C56.156 71.0368 56.2625 70.8674 56.2625 70.8674V70.8257C56.9443 69.6421 58.479 66.9587 60.759 62.5004C63.6998 56.7534 66.5342 49.5696 66.5342 49.5696C66.5342 49.5696 66.7901 51.3232 67.6635 54.239C68.1753 55.9505 69.2401 57.831 70.0929 59.648C69.4111 60.5991 68.9847 61.127 68.9847 61.127L69.0062 61.1483C68.4518 61.8665 67.8554 62.6481 67.1946 63.4094C64.8716 66.1558 62.1017 69.3045 61.7178 70.2126C61.2699 71.2901 61.3769 72.0722 62.2296 72.7062C62.8475 73.1711 63.9553 73.234 65.085 73.1711C67.1735 73.0229 68.6437 72.5158 69.3681 72.1991C70.4978 71.7976 71.819 71.1846 73.0548 70.276C75.3353 68.6067 76.72 66.2192 76.5925 63.0714C76.5285 61.3386 75.9531 59.6059 75.2498 57.9787C75.4632 57.6833 75.6547 57.3874 75.8681 57.0915C79.4694 51.8724 82.2612 46.1462 82.2612 46.1462C82.2612 46.1462 82.5171 47.8998 83.3905 50.8161C83.8169 52.2951 84.6907 53.901 85.4575 55.4643C82.0693 58.1903 79.9808 61.3594 79.2349 63.4302C77.8927 67.2759 78.9365 69.0082 80.9185 69.4097C81.8134 69.6 83.0921 69.1772 84.0298 68.7757C85.2231 68.3956 86.6298 67.7408 87.9725 66.7684C90.2529 65.0995 92.4475 62.775 92.3195 59.6272C92.2555 58.1903 91.8721 56.7743 91.3392 55.4009C94.2161 54.2182 97.9243 53.563 102.655 54.1122C112.799 55.2953 114.802 61.5706 114.418 64.2123C114.035 66.8531 111.904 68.29 111.201 68.7336C110.497 69.1777 110.263 69.3254 110.327 69.6421C110.412 70.107 110.753 70.0862 111.35 70.0014C112.181 69.8537 116.678 67.8672 116.869 63.0075C117.189 56.7956 111.222 50.0132 100.673 50.0766V50.0766ZM22.4215 76.2346C19.0542 79.8687 14.3662 81.2421 12.3417 80.0803C10.1682 78.8333 11.0205 73.4665 15.1546 69.6213C17.669 67.2759 20.9083 65.0991 23.0608 63.7683C23.5507 63.4724 24.2755 63.0501 25.1493 62.5217C25.2983 62.437 25.3838 62.3948 25.3838 62.3948L25.8952 62.0776C27.4079 67.5713 25.9592 72.4103 22.4215 76.2346V76.2346ZM46.9285 59.7114C45.7563 62.543 43.3058 69.7903 41.8142 69.3888C40.5354 69.0508 39.7466 63.5571 41.5582 58.1269C42.4745 55.4009 44.4136 52.147 45.5433 50.8796C47.3759 48.8509 49.4005 48.1744 49.8904 48.9991C50.5087 50.0766 47.6529 57.9365 46.9285 59.7114V59.7114ZM67.1521 69.3041C66.6617 69.5578 66.1933 69.7269 65.9798 69.6C65.8309 69.5152 66.1933 69.1772 66.1933 69.1772C66.1933 69.1772 68.7292 66.473 69.7305 65.2473C70.3063 64.5291 70.9877 63.684 71.7126 62.7329V63.0075C71.7126 66.2405 68.5583 68.4169 67.1516 69.3041H67.1521ZM82.7511 65.7756C82.3887 65.5219 82.4527 64.6768 83.6674 62.0355C84.1363 61.0001 85.2441 59.2678 87.1412 57.5985C87.3541 58.2746 87.5036 58.9298 87.4821 59.5424C87.4606 63.6205 84.5202 65.1417 82.7511 65.7756Z" fill="#CD6799"/>
</g>
<defs>
<clipPath id="clip0_1_55">
<rect width="117" height="87" fill="white"/>
</clipPath>
</defs>
</g>

<g id="reduxToolkit">
<path d="M72.7792 69.5627C76.6509 69.1619 79.5882 65.8242 79.4546 61.8184C79.3214 57.8131 75.9833 54.6086 71.9779 54.6086H71.7111C67.5718 54.7422 64.3677 58.2135 64.5013 62.3525C64.6349 64.3553 65.4357 66.091 66.6374 67.2926C62.098 76.2385 55.1554 82.7807 44.7415 88.2549C37.6652 91.9934 30.3222 93.3287 22.9792 92.3943C16.971 91.593 12.298 88.923 9.3603 84.5164C5.08817 77.9742 4.68776 70.8975 8.29268 63.8213C10.8296 58.7475 14.8345 55.009 17.3714 53.1398C16.8374 51.4041 16.0361 48.4668 15.6357 46.3307C-3.72371 60.35 -1.72084 79.3094 4.15375 88.2549C8.55949 94.9311 17.505 99.0701 27.3849 99.0701C30.055 99.0701 32.7251 98.8029 35.3955 98.1357C52.4853 94.7975 65.4361 84.65 72.7792 69.5627ZM96.2775 53.0066C86.1304 41.1234 71.1771 34.5811 54.0873 34.5811H51.9513C50.7496 32.1779 48.2128 30.5754 45.4091 30.5754H45.1419C41.0033 30.709 37.7992 34.1803 37.9324 38.3197C38.066 42.325 41.4037 45.5295 45.4091 45.5295H45.6759C48.6132 45.3959 51.1501 43.5266 52.2181 40.9898H54.6214C64.7685 40.9898 74.3812 43.927 83.0599 49.6684C89.7353 54.0746 94.5419 59.816 97.2119 66.7586C99.4816 72.3664 99.348 77.8406 96.9447 82.5139C93.2066 89.5902 86.9316 93.4623 78.6537 93.4623C73.3132 93.4623 68.2398 91.8598 65.5693 90.6582C64.1009 91.9934 61.4304 94.1295 59.5611 95.4652C65.3025 98.1352 71.1771 99.6041 76.7845 99.6041C89.6017 99.6041 99.0812 92.5275 102.686 85.4512C106.558 77.707 106.291 64.3553 96.2775 53.0066ZM28.4529 71.832C28.5865 75.8377 31.9242 79.0418 35.9296 79.0418H36.1968C40.3357 78.9086 43.5398 75.4369 43.4062 71.2979C43.273 67.2922 39.9349 64.0881 35.9296 64.0881H35.6628C35.3955 64.0881 34.9947 64.0881 34.7283 64.2213C29.2542 55.1422 26.9845 45.2623 27.7857 34.5807C28.3193 26.5697 30.9898 19.6266 35.6628 13.8852C39.5345 8.94508 47.0111 6.5418 52.0849 6.40861C66.2369 6.14139 72.2447 23.7656 72.6455 30.8422C74.3812 31.2426 77.3185 32.1775 79.3214 32.8451C77.7189 11.2156 64.3677 0 51.5509 0C39.5345 0 28.4529 8.67869 24.0468 21.4963C17.9054 38.5865 21.9107 55.009 29.3874 67.9602C28.7201 68.8947 28.3193 70.3635 28.4529 71.8324V71.832Z" fill="#764ABC"/>
</g>

<g id="styledComponent">

<g clip-path="url(#clip0_1_3263)">
<path d="M68.7672 118.279C68.9472 117.872 69.4014 117.589 69.7314 117.246C74.7665 111.967 79.8444 106.735 84.811 101.391C86.3651 99.9558 87.5661 98.1804 88.3199 96.2036C89.0737 94.2269 89.36 92.1026 89.1562 89.9968C89.0003 89.0951 88.7957 88.2025 88.5434 87.3229C87.1893 88.6084 85.9294 89.7783 84.661 90.9567C82.6898 92.7908 80.7272 94.6334 78.7389 96.4461C77.5664 97.6415 76.0589 98.4531 74.4155 98.7737C72.772 99.0943 71.07 98.9087 69.5342 98.2416C67.9796 97.6705 66.6269 96.6553 65.6442 95.3221C64.6614 93.9889 64.0919 92.3965 64.0063 90.7425C63.9603 90.5297 63.8987 90.3206 63.8221 90.1168C62.3094 91.4024 60.861 92.5851 59.4254 93.8021L29.5875 119.085C29.3818 119.261 29.159 119.479 28.9662 119.65H68.7458L68.6858 119.612C68.4715 119.462 68.5829 118.673 68.7672 118.279Z" fill="#FFCEBF"/>
<path d="M27.1436 118.279C27.4974 117.818 27.9245 117.418 28.4077 117.096L69.7 82.0642C72.5168 79.6731 75.3207 77.2691 78.1118 74.8522C78.4567 74.6118 78.727 74.2791 78.8918 73.8924C79.5594 70.9831 79.654 67.9717 79.1703 65.0263C78.7418 65.3262 78.5104 65.4548 78.3132 65.6648C74.9322 68.6901 71.5683 71.7412 68.1702 74.7494C67.0445 75.8824 65.5885 76.6292 64.0116 76.8825C62.4346 77.1359 60.818 76.8826 59.3941 76.1592C57.9414 75.4734 56.7256 74.3709 55.9014 72.992C55.0773 71.6131 54.682 70.0201 54.766 68.4159V67.0275C54.1447 67.4817 53.6905 67.7859 53.2662 68.1287C36.7396 81.3615 20.2159 94.5842 3.69496 107.797C2.94933 108.393 2.05801 109.721 1.08098 108.431C0.103957 107.141 1.59092 106.61 2.34083 106.01C19.953 91.8774 37.5738 77.7576 55.2031 63.6507C58.0742 61.3496 58.2628 60.3854 56.3944 56.7301L55.2803 57.7757C52.2249 60.6168 49.1353 63.4193 46.1271 66.3075C44.8931 67.4978 43.3476 68.3148 41.6691 68.6641C39.9906 69.0135 38.2476 68.8809 36.6412 68.2818C35.0348 67.6827 33.6306 66.6415 32.5908 65.2784C31.5509 63.9153 30.9178 62.2858 30.7646 60.5782C30.1947 61.0067 29.7019 61.3196 29.2348 61.6838L3.09503 81.9443C2.64419 82.3864 2.13005 82.7591 1.5695 83.0498C1.14643 83.1777 0.692134 83.155 0.283936 82.9856V119.671H27.0922C26.9925 119.451 26.9453 119.21 26.9542 118.969C26.9631 118.727 27.028 118.491 27.1436 118.279Z" fill="#FFCEBF"/>
<path d="M99.5654 1.82096C98.8369 4.20782 98.1298 6.59897 97.4913 9.01154C96.9016 10.7164 96.9702 12.5802 97.6837 14.2371C98.3972 15.8941 99.7041 17.2246 101.348 17.9676C106.376 20.6107 112.043 21.798 117.709 21.3958V2.22806C117.646 1.80781 117.669 1.37914 117.777 0.968207C117.897 0.73576 118.049 0.520916 118.227 0.329712H99.5482C99.8353 0.663958 99.7368 1.25103 99.5654 1.82096Z" fill="#FF6196"/>
<path d="M62.0511 42.9976C61.9623 45.137 61.2139 47.1966 59.9085 48.894C55.242 54.9179 49.8829 60.3719 43.9418 65.1435C42.9837 66.0304 41.7694 66.591 40.473 66.745C39.1766 66.8989 37.8647 66.6383 36.7255 66.0005C35.5917 65.5161 34.6357 64.6925 33.9889 63.6428C33.342 62.5932 33.0361 61.369 33.1131 60.1384C33.2503 58.627 33.8779 57.202 34.9 56.0803C41.5435 49.7455 48.7415 44.019 56.4075 38.9695C56.9096 38.5758 57.5227 38.3499 58.1602 38.3237C58.7977 38.2976 59.4273 38.4725 59.9599 38.8238C60.66 39.2585 61.2259 39.8786 61.5951 40.6153C61.9642 41.352 62.122 42.1766 62.0511 42.9976Z" fill="#FF87AF"/>
<path d="M56.9127 68.97C56.8132 68.0228 56.9348 67.0654 57.2679 66.1731C57.6011 65.2809 58.1366 64.478 58.8325 63.8277C65.3374 57.8281 72.3164 52.3638 79.7014 47.4883C79.9243 47.3468 80.13 47.2054 80.3742 47.0597C81.0193 46.594 81.8009 46.356 82.596 46.3832C83.3912 46.4103 84.1547 46.7011 84.7665 47.2097C85.3585 47.7112 85.7774 48.3865 85.9635 49.1396C86.1497 49.8928 86.0937 50.6854 85.8036 51.4049C84.8693 54.5168 83.1449 57.3337 80.7984 59.5811C76.033 64.2758 71.1755 68.8762 66.2287 73.3795C65.4838 74.1456 64.5052 74.6422 63.447 74.7911C62.3889 74.9401 61.3112 74.7329 60.3837 74.2022C59.4091 73.6958 58.5792 72.9499 57.9721 72.0347C57.3649 71.1194 57.0004 70.0648 56.9127 68.97Z" fill="#FF87AF"/>
<path d="M87.8344 71.8015C86.6346 73.0871 85.4004 74.3126 84.2477 75.6282C83.9011 76.1367 83.6136 76.683 83.3907 77.2566C84.0249 77.4451 84.7662 77.9422 85.2804 77.7665C87.8987 76.888 90.4527 75.8339 93.3281 74.724C92.7024 76.1638 92.231 77.4922 91.5668 78.7092C88.8305 83.3078 85.4038 87.4587 81.4066 91.0164C79.8868 92.4819 78.3084 93.8832 76.6715 95.2201C75.8046 95.9395 74.7622 96.4157 73.6509 96.6001C72.5396 96.7844 71.3992 96.6702 70.3465 96.2692C69.2938 95.8681 68.3665 95.1947 67.6595 94.3176C66.9525 93.4406 66.4912 92.3916 66.3227 91.2778C66.254 90.6585 66.3087 90.0317 66.4838 89.4337C66.6589 88.8357 66.9507 88.2784 67.3426 87.7939C73.174 81.4614 79.8384 75.9503 87.1531 71.4115C87.242 71.3771 87.3363 71.3582 87.4316 71.3558L87.8344 71.8015Z" fill="#FF87AF"/>
<path d="M97.6724 54.7335L105.004 22.1659L110.147 23.37L107.494 31.4305C105.017 38.9296 102.51 46.4287 100.093 53.9364C99.6221 55.3248 99.0051 55.5819 97.6724 54.7335Z" fill="#FF6196"/>
<path d="M89.3859 73.8885C90.1615 70.9274 90.9328 68.1892 91.5842 65.421C92.219 62.7364 93.4264 60.2207 95.1238 58.0461C96.1651 56.6791 97.3349 57.2234 98.5305 57.519C99.6361 57.789 99.9146 58.5989 99.9618 59.6616C100.136 62.6005 99.2411 65.5031 97.4421 67.8335C95.3003 70.4887 92.5318 72.5695 89.3859 73.8885Z" fill="#FF6196"/>
<path d="M119.944 3.83936C120.008 2.88498 119.983 1.92674 119.871 0.976845C119.783 0.711516 119.607 0.483621 119.374 0.329779C119.184 0.175101 118.961 0.0652523 118.723 0.00838844C118.585 -0.0173228 118.393 0.124089 118.208 0.325493C118.03 0.516698 117.878 0.731542 117.758 0.96399C117.65 1.37492 117.627 1.80359 117.69 2.22384V21.3873C112.023 21.7895 106.357 20.6022 101.329 17.9591C99.685 17.2161 98.3781 15.8856 97.6646 14.2286C96.951 12.5717 96.8824 10.7079 97.4722 9.00304C98.1107 6.59046 98.8178 4.19932 99.5462 1.81246C99.7177 1.24253 99.8162 0.655454 99.5462 0.321208C99.3961 0.158494 99.1888 0.0602123 98.9677 0.0469556C98.6847 0.0500088 98.4105 0.146413 98.1878 0.321208C97.8674 0.512888 97.6121 0.796593 97.4551 1.1354C96.598 3.70652 95.8438 6.30336 95.1882 8.9259C94.9407 9.95936 94.874 11.0279 94.9911 12.0841C95.1569 13.9952 95.8676 15.8186 97.0389 17.3377C98.2102 18.8569 99.7928 20.0081 101.599 20.6545C102.409 20.993 102.884 21.3273 102.657 22.3943C102.344 23.7484 102.04 25.1026 101.732 26.461C99.632 35.6656 97.5436 44.8745 95.4667 54.0877C95.4082 54.4985 95.2275 54.8822 94.9482 55.189C93.5793 56.2771 92.4291 57.6148 91.5586 59.1314C90.4493 61.1327 89.6817 63.3052 89.2875 65.5592C89.2118 66.2782 88.952 66.9655 88.5331 67.5548C88.1143 68.144 87.5505 68.6153 86.8963 68.9231C85.1094 69.8273 83.4682 70.9971 81.4841 72.2141C81.6164 69.8282 81.5906 67.4361 81.407 65.0535C81.256 64.3206 81.288 63.5618 81.5003 62.8442C81.7126 62.1267 82.0985 61.4725 82.624 60.9397C85.2375 58.3506 87.1005 55.1015 88.0148 51.538C88.2878 50.712 88.3627 49.8333 88.2333 48.9729C88.104 48.1126 87.774 47.2948 87.27 46.5856C86.7661 45.8764 86.1023 45.2957 85.3325 44.8905C84.5626 44.4853 83.7081 44.267 82.8382 44.2531C81.4298 44.2374 80.047 44.6304 78.8573 45.3844C74.7683 48.1767 70.7504 51.0715 66.8073 54.0663C64.4633 55.8318 62.2564 57.7858 59.9852 59.637C59.8873 59.5319 59.8025 59.4154 59.7324 59.2899C59.689 58.9744 59.604 58.6661 59.4796 58.3729C57.5812 55.4418 58.8968 53.3121 60.958 51.1223C63.1053 48.8714 64.2919 45.8727 64.2661 42.7619C64.3327 41.1769 63.8363 39.6194 62.8649 38.3653C62.3474 37.7286 61.7096 37.2001 60.988 36.8097C59.9629 36.2487 58.7908 36.0145 57.6289 36.1386C56.467 36.2627 55.3708 36.7391 54.4873 37.5039L53.2917 38.361C50.5621 40.315 47.7981 42.2177 45.1713 44.3089C41.3364 47.3705 37.5841 50.5341 33.9183 53.7963C32.2042 55.309 30.953 57.3744 29.1746 58.78C19.9014 66.1034 10.5297 73.294 1.1922 80.5317C0.871132 80.7232 0.575909 80.9551 0.313735 81.2216C0.286745 81.2606 0.263774 81.3023 0.245172 81.3459C0.0480521 81.8044 -0.119071 82.5629 0.112331 82.8414C0.169054 82.9019 0.23761 82.95 0.313735 82.9828C0.721934 83.1523 1.17623 83.175 1.5993 83.0471C2.15985 82.7563 2.67399 82.3837 3.12483 81.9415L29.2646 61.6811C29.7317 61.3168 30.2245 60.9869 30.7944 60.5755C30.9476 62.2831 31.5807 63.9125 32.6206 65.2757C33.6604 66.6388 35.0646 67.68 36.671 68.2791C38.2774 68.8782 40.0204 69.0107 41.6989 68.6614C43.3774 68.312 44.9229 67.4951 46.1569 66.3048C49.1565 63.4166 52.2547 60.6141 55.3101 57.773L56.4242 56.7274C58.2926 60.3827 58.104 61.3468 55.2329 63.648C37.5893 77.7663 19.9585 91.8875 2.34064 106.012C1.59073 106.611 0.108046 107.156 1.08079 108.433C2.05353 109.71 2.94914 108.394 3.69476 107.798C20.2242 94.5972 36.7423 81.3787 53.2489 68.1432C53.6774 67.8003 54.1273 67.4961 54.7487 67.0419V68.4303C54.6647 70.0345 55.0599 71.6275 55.8841 73.0064C56.7082 74.3853 57.924 75.4879 59.3767 76.1736C60.8007 76.897 62.4173 77.1503 63.9942 76.897C65.5711 76.6436 67.0271 75.8968 68.1528 74.7638C71.551 71.7642 74.9149 68.7045 78.2959 65.6792C78.5102 65.4863 78.7587 65.3406 79.153 65.0407C79.6367 67.9861 79.542 70.9975 78.8744 73.9068C78.7096 74.2936 78.4394 74.6262 78.0945 74.8667C75.3005 77.2807 72.4966 79.6847 69.6826 82.0787L28.4075 117.115C27.9243 117.437 27.4972 117.836 27.1434 118.297C27.0305 118.507 26.9672 118.741 26.9582 118.979C26.9493 119.217 26.9951 119.455 27.092 119.673C27.2856 119.818 27.5094 119.917 27.7468 119.964C27.9842 120.011 28.2291 120.004 28.4633 119.943C28.648 119.889 28.8181 119.794 28.9603 119.664C29.1746 119.493 29.3889 119.274 29.5817 119.099L59.4196 93.8158C60.8551 92.5988 62.3035 91.399 63.8162 90.1306C63.8928 90.3343 63.9544 90.5434 64.0005 90.7562C64.0861 92.4102 64.6556 94.0027 65.6383 95.3358C66.6211 96.669 67.9737 97.6842 69.5284 98.2553C71.0641 98.9225 72.7662 99.108 74.4096 98.7874C76.053 98.4669 77.5606 97.6552 78.733 96.4598C80.7213 94.6472 82.684 92.8045 84.6552 90.9705C85.9407 89.792 87.1834 88.6093 88.5376 87.3366C88.7898 88.2162 88.9944 89.1089 89.1503 90.0106C89.3473 92.1094 89.0578 94.2253 88.3042 96.1941C87.5506 98.1628 86.3532 99.9313 84.8051 101.362C79.8386 106.71 74.7606 111.942 69.7255 117.217C69.3955 117.56 68.9413 117.843 68.7613 118.25C68.5813 118.657 68.4657 119.454 68.6799 119.626L68.7399 119.664C69.1892 119.883 69.6945 119.959 70.1883 119.883C70.3267 119.854 70.45 119.777 70.5354 119.664C70.6554 119.54 70.7711 119.386 70.8868 119.27C74.9663 115.053 79.0672 110.858 83.1168 106.611C84.7513 104.955 86.288 103.205 87.7191 101.371C89.5851 99.3049 90.8224 96.7492 91.2855 94.0042C91.7486 91.2591 91.4181 88.439 90.3331 85.8754C90.2164 85.3037 90.3304 84.7092 90.6502 84.2213C90.9287 83.7413 91.2372 83.2742 91.5543 82.8114C92.569 81.494 93.4141 80.0544 94.0698 78.5262C95.3368 74.7758 97.2817 71.2898 99.8076 68.2417C100.969 66.7695 101.768 65.0448 102.14 63.207C102.512 61.3692 102.447 59.4696 101.95 57.6616C101.775 56.9741 101.775 56.2535 101.95 55.5661C104.119 48.8512 106.351 42.1577 108.562 35.4599L111.519 26.4867L112.432 23.7142C114.377 23.7142 116.211 23.6756 118.037 23.7142C119.554 23.757 120.017 23.0457 120 21.5715C119.91 15.658 119.944 9.74866 119.944 3.83936ZM43.9371 65.1435C42.9791 66.0304 41.7647 66.591 40.4683 66.745C39.1719 66.8989 37.86 66.6383 36.7208 66.0006C35.587 65.5162 34.631 64.6925 33.9842 63.6429C33.3373 62.5932 33.0314 61.369 33.1084 60.1384C33.2457 58.6271 33.8732 57.202 34.8953 56.0803C41.5388 49.7455 48.7368 44.019 56.4028 38.9695C56.8212 38.6737 57.2972 38.4693 57.7998 38.3696C58.1369 38.3074 58.4825 38.3074 58.8196 38.3696C59.2234 38.4482 59.6086 38.6023 59.9552 38.8238C60.656 39.2588 61.2224 39.8796 61.5916 40.6171C61.9607 41.3547 62.1182 42.1802 62.0464 43.0019C61.9576 45.1413 61.2092 47.2009 59.9038 48.8983C55.237 54.9207 49.878 60.3733 43.9371 65.1435ZM66.2202 73.4097C65.4752 74.1758 64.4966 74.6724 63.4385 74.8213C62.3803 74.9703 61.3027 74.7631 60.3752 74.2324C59.3988 73.7249 58.5678 72.977 57.9605 72.0593C57.3533 71.1416 56.9897 70.0844 56.9042 68.9874C56.8047 68.0401 56.9263 67.0828 57.2594 66.1905C57.5925 65.2982 58.1281 64.4954 58.8239 63.8451C65.3288 57.8454 72.3078 52.3811 79.6929 47.5056C79.9157 47.3642 80.1214 47.2228 80.3657 47.0771C81.0107 46.6114 81.7923 46.3734 82.5875 46.4005C83.3826 46.4277 84.1462 46.7185 84.758 47.2271C85.35 47.7285 85.7688 48.4038 85.955 49.157C86.1412 49.9101 86.0852 50.7028 85.795 51.4223C84.8607 54.5342 83.1364 57.351 80.7899 59.5985C76.0633 64.3208 71.1482 68.8674 66.2288 73.3925L66.2202 73.4097ZM91.5501 78.7276C88.8175 83.319 85.3967 87.4638 81.407 91.0176C79.8872 92.4831 78.3088 93.8844 76.6718 95.2214C75.8049 95.9408 74.7625 96.417 73.6512 96.6013C72.5399 96.7856 71.3996 96.6714 70.3469 96.2704C69.2942 95.8694 68.3669 95.1959 67.6599 94.3189C66.9529 93.4419 66.4915 92.3928 66.323 91.279C66.2543 90.6597 66.3091 90.0329 66.4842 89.435C66.6592 88.837 66.9511 88.2796 67.3429 87.7951C73.1743 81.4627 79.8387 75.9515 87.1534 71.4128C87.2424 71.3783 87.3366 71.3594 87.432 71.3571L87.8605 71.7856C86.6606 73.0712 85.4265 74.2967 84.2738 75.6123C83.9272 76.1208 83.6396 76.6671 83.4167 77.2407C84.0509 77.4292 84.7923 77.9263 85.3065 77.7506C87.3763 77.0564 89.4117 76.2508 91.5929 75.3937L93.3541 74.7081C92.6942 76.1651 92.2228 77.4935 91.5586 78.7105L91.5501 78.7276ZM97.4336 67.8646C95.8352 69.8996 93.8317 71.5806 91.5501 72.8012C90.8444 73.1954 90.1202 73.564 89.3775 73.9068C90.1402 70.9885 90.903 68.2846 91.5501 65.5506L91.5758 65.4392C92.2106 62.7546 93.418 60.2389 95.1153 58.0644C96.1566 56.6974 97.3265 57.2416 98.5221 57.5373C99.6277 57.8073 99.9062 58.6172 99.9533 59.6799C100.129 62.6162 99.2372 65.5171 97.4422 67.8475L97.4336 67.8646ZM107.461 31.4404C104.984 38.9395 102.477 46.4386 100.06 53.9463C99.6062 55.3561 98.9892 55.6132 97.6565 54.7648L104.011 26.5124L104.988 22.1758L110.131 23.3799L109.098 26.5124L107.461 31.4404Z" fill="black"/>
</g>
<defs>
<clipPath id="clip0_1_3263">
<rect width="105" height="105" fill="white"/>
</clipPath>
</defs>
</g>

<g id="css">
<path d="M22.1325 101.154L13.71 7.4375H106.29L97.8562 101.139L59.9437 111.562L22.1325 101.154Z" fill="#1572B6"/>
<path d="M60 103.597L90.6375 95.174L97.845 15.1019H60V103.597Z" fill="#33A9DC"/>
<path d="M60 49.054H75.3375L76.395 37.2842H60V25.7896H89.0625L88.785 28.8724L85.9387 60.5487H60V49.054V49.054Z" fill="white"/>
<path d="M60.0712 78.9045L60.0187 78.9193L47.1112 75.4609L46.2862 66.2942H34.65L36.2737 84.3413L60.015 90.8788L60.0712 90.864V78.9045V78.9045Z" fill="#EBEBEB"/>
<path d="M74.3512 60.0615L72.9563 75.4534L60.03 78.9119V90.8714L83.79 84.3412L83.9663 82.4001L85.98 60.0615H74.3512V60.0615Z" fill="white"/>
<path d="M60.0413 25.7896V37.2842H32.0438L31.8113 34.6997L31.2825 28.8724L31.005 25.7896H60.0413V25.7896ZM60 49.054V60.5487H47.2538L47.0213 57.9642L46.4963 52.1369L46.2188 49.054H60V49.054Z" fill="#EBEBEB"/>
</g>

<g id="js">
<rect x="7.5" y="7.5" width="105" height="105" rx="20" ry="20" fill="#F5DE19" />
<path d="M78.0338 89.5313C78.9284 91.3485 80.3183 92.8759 82.0434 93.9375C83.7684 94.9991 85.7583 95.5515 87.7838 95.5313C91.8713 95.5313 94.485 93.4875 94.485 90.6562C94.485 87.2812 91.8 86.0738 87.3 84.105L84.8325 83.0475C77.7075 80.0138 72.9825 76.215 72.9825 68.1825C72.9825 60.7838 78.6075 55.1475 87.4313 55.1475C90.2876 54.9412 93.1416 55.5805 95.637 56.9856C98.1324 58.3907 100.159 60.4994 101.464 63.0488L93.75 67.98C93.2476 66.716 92.3728 65.6345 91.2416 64.879C90.1104 64.1236 88.7763 63.7298 87.4163 63.75C86.8229 63.6906 86.2236 63.7555 85.6567 63.9404C85.0897 64.1254 84.5675 64.4265 84.1233 64.8244C83.6792 65.2224 83.3228 65.7085 83.0769 66.2518C82.8309 66.7951 82.7009 67.3837 82.695 67.98C82.695 70.9388 84.5288 72.1388 88.7625 73.98L91.23 75.0375C99.615 78.6338 104.355 82.2975 104.355 90.5363C104.355 99.42 97.3763 104.287 88.005 104.287C84.3536 104.52 80.713 103.691 77.5223 101.901C74.3317 100.11 71.7274 97.4342 70.0238 94.1962L78.0338 89.5313ZM43.1775 90.3863C44.7263 93.135 46.1363 95.46 49.5263 95.46C52.7663 95.46 54.8138 94.1925 54.8138 89.2612V55.71H64.68V89.3925C64.68 99.6075 58.68 104.258 49.9463 104.258C46.8591 104.426 43.7931 103.657 41.1513 102.051C38.5096 100.444 36.4157 98.0761 35.145 95.2575L43.1775 90.3863Z" fill="white"/>

</g>

<g id="tailwind">
<path d="M36.8438 56.0844C40.6646 40.801 50.2167 33.1594 65.5 33.1594C88.425 33.1594 91.2906 50.3531 102.753 53.2187C110.395 55.1292 117.081 52.2635 122.812 44.6219C118.992 59.9052 109.44 67.5469 94.1562 67.5469C71.2313 67.5469 68.3656 50.3531 56.9031 47.4875C49.2615 45.5771 42.575 48.4427 36.8438 56.0844ZM8.1875 90.4719C12.0083 75.1885 21.5604 67.5469 36.8438 67.5469C59.7687 67.5469 62.6344 84.7406 74.0969 87.6062C81.7385 89.5167 88.425 86.651 94.1562 79.0094C90.3354 94.2927 80.7833 101.934 65.5 101.934C42.575 101.934 39.7094 84.7406 28.2469 81.875C20.6052 79.9646 13.9187 82.8302 8.1875 90.4719Z" fill="#44A8B3"/>
</g>

<g id="vscode">
<path d="M101.535 17.605L81.354 7.88899C80.2143 7.33948 78.9319 7.15814 77.6846 7.37011C76.4372 7.58208 75.2867 8.17686 74.3925 9.07199L8.33001 69.3C7.52848 70.0273 7.04868 71.0432 6.99617 72.1243C6.94366 73.2053 7.32274 74.2629 8.05001 75.0645C8.13751 75.159 8.22501 75.25 8.31951 75.334L13.713 80.234C14.4178 80.8754 15.325 81.2497 16.277 81.2919C17.229 81.3341 18.1658 81.0416 18.9245 80.465L98.497 20.125C99.098 19.6689 99.8145 19.3897 100.566 19.3186C101.317 19.2476 102.073 19.3877 102.749 19.7231C103.424 20.0585 103.993 20.5758 104.391 21.217C104.789 21.8581 105 22.5975 105 23.352V23.1175C105 21.9656 104.675 20.8372 104.062 19.862C103.449 18.8868 102.573 18.1045 101.535 17.605V17.605Z" fill="#0065A9"/>
<path d="M101.535 94.395L81.354 104.115C80.214 104.662 78.932 104.843 77.685 104.631C76.438 104.419 75.2875 103.825 74.3925 102.932L8.33001 42.7C7.52848 41.9727 7.04868 40.9568 6.99617 39.8758C6.94366 38.7947 7.32274 37.7371 8.05001 36.9355C8.13751 36.841 8.22501 36.75 8.31951 36.666L13.713 31.766C14.4185 31.1219 15.3278 30.7459 16.2821 30.7037C17.2365 30.6615 18.1754 30.9557 18.935 31.535L98.497 91.875C99.098 92.3311 99.8145 92.6104 100.566 92.6814C101.317 92.7524 102.073 92.6123 102.749 92.2769C103.424 91.9415 103.993 91.4242 104.391 90.783C104.789 90.1419 105 89.4025 105 88.648V88.9C104.996 90.0488 104.669 91.1733 104.057 92.1451C103.444 93.1168 102.57 93.8965 101.535 94.395V94.395Z" fill="#007ACC"/>
<path d="M81.354 104.114C80.214 104.662 78.9319 104.843 77.6849 104.631C76.4379 104.419 75.2875 103.825 74.3925 102.931C74.8951 103.428 75.5329 103.764 76.2261 103.899C76.9192 104.034 77.6368 103.962 78.289 103.691C78.9411 103.42 79.4988 102.963 79.8921 102.376C80.2854 101.79 80.4969 101.1 80.5 100.394V11.606C80.5006 10.8965 80.2906 10.2028 79.8966 9.61274C79.5026 9.02271 78.9423 8.56288 78.2868 8.29152C77.6312 8.02016 76.9099 7.94946 76.2141 8.0884C75.5184 8.22734 74.8795 8.56965 74.3785 9.07197C75.2728 8.17717 76.4231 7.58235 77.6702 7.3698C78.9174 7.15724 80.1997 7.33744 81.34 7.88547L101.517 17.5875C102.559 18.0845 103.438 18.8657 104.054 19.8411C104.67 20.8165 104.998 21.9463 105 23.1V88.9C105 90.0528 104.675 91.1822 104.061 92.1581C103.447 93.134 102.571 93.9167 101.531 94.416L81.354 104.114Z" fill="#1F9CF0"/>
</g>

<g id="typeScript"> 

<rect x="7.5" y="7.5" width="107" height="105" rx="20" ry="20" fill="#007ACC" />
<path d="M26.5374 60.3979L26.4993 65.3122H34.3088H42.1184L42.1184 87.5026V109.693H47.6422H53.166V87.5026L53.166 65.3122H60.9755H68.785V60.4931C68.785 57.8264 68.7279 55.5979 68.6517 55.5407C68.5946 55.4645 59.0898 55.4264 47.566 55.4455L26.5946 55.5026L26.5374 60.3979Z" fill="white"/>
<path d="M96.8264 55.3636C99.874 56.1255 102.198 57.4779 104.331 59.6874C105.436 60.8684 107.074 63.0208 107.207 63.535C107.245 63.6874 102.026 67.1922 98.8644 69.1541C98.7502 69.2303 98.293 68.7351 97.7787 67.9731C96.2359 65.7255 94.6168 64.7541 92.1406 64.5827C88.5025 64.335 86.1597 66.2398 86.1787 69.4208C86.1787 70.3541 86.3121 70.9065 86.693 71.6684C87.493 73.3255 88.9787 74.316 93.6454 76.3351C102.236 80.0303 105.912 82.4684 108.198 85.935C110.75 89.8017 111.322 95.9731 109.588 100.564C107.683 105.554 102.96 108.945 96.3121 110.068C94.2549 110.43 89.3787 110.373 87.1692 109.973C82.3502 109.116 77.7787 106.735 74.9597 103.611C73.8549 102.392 71.7025 99.2112 71.8359 98.9827C71.893 98.9065 72.3883 98.6017 72.9406 98.2779C73.474 97.9731 75.493 96.8112 77.3978 95.7065L80.8454 93.7065L81.5692 94.7731C82.5787 96.316 84.7883 98.4303 86.1216 99.135C89.9502 101.154 95.2073 100.868 97.7978 98.5446C98.9025 97.535 99.3597 96.4874 99.3597 94.9446C99.3597 93.5541 99.1883 92.9446 98.4644 91.897C97.5311 90.5636 95.6263 89.4398 90.2168 87.097C84.0263 84.4303 81.3597 82.7731 78.9216 80.1446C77.5121 78.6208 76.1787 76.1827 75.6264 74.1446C75.1692 72.4493 75.0549 68.2017 75.4168 66.4874C76.693 60.5065 81.2073 56.335 87.7216 55.097C89.8359 54.697 94.7502 54.8493 96.8264 55.3636Z" fill="white"/>

</g>

<!-- social -->
<g id="linkedin">
<g clip-path="url(#clip0_1_188)">
<path d="M15 0.599976C7.04698 0.599976 0.599976 7.04698 0.599976 15C0.599976 22.953 7.04698 29.4 15 29.4C22.953 29.4 29.4 22.953 29.4 15C29.4 7.04698 22.953 0.599976 15 0.599976ZM11.475 20.9685H8.55898V11.5845H11.475V20.9685ZM9.99898 10.4325C9.07798 10.4325 8.48248 9.77998 8.48248 8.97298C8.48248 8.14948 9.09598 7.51648 10.0365 7.51648C10.977 7.51648 11.553 8.14948 11.571 8.97298C11.571 9.77998 10.977 10.4325 9.99898 10.4325ZM22.125 20.9685H19.209V15.768C19.209 14.5575 18.786 13.7355 17.7315 13.7355C16.926 13.7355 16.4475 14.292 16.236 14.8275C16.158 15.018 16.1385 15.288 16.1385 15.5565V20.967H13.221V14.577C13.221 13.4055 13.1835 12.426 13.1445 11.583H15.678L15.8115 12.8865H15.87C16.254 12.2745 17.1945 11.3715 18.768 11.3715C20.6865 11.3715 22.125 12.657 22.125 15.42V20.9685V20.9685Z" fill="#34348f"/>
</g>
<defs>
<clipPath id="clip0_1_188">
<rect width="50" height="50" fill="white"/>
</clipPath>
</defs>
</g>

<g id="telegram">
				<circle cx="16" cy="16" r="14" fill="url(#paint0_linear_87_7225)"/>
<path d="M22.9866 10.2088C23.1112 9.40332 22.3454 8.76755 21.6292 9.082L7.36482 15.3448C6.85123 15.5703 6.8888 16.3483 7.42147 16.5179L10.3631 17.4547C10.9246 17.6335 11.5325 17.541 12.0228 17.2023L18.655 12.6203C18.855 12.4821 19.073 12.7665 18.9021 12.9426L14.1281 17.8646C13.665 18.3421 13.7569 19.1512 14.314 19.5005L19.659 22.8523C20.2585 23.2282 21.0297 22.8506 21.1418 22.1261L22.9866 10.2088Z" fill="white"/>
<defs>
<linearGradient id="paint0_linear_87_7225" x1="25" y1="2" x2="25" y2="30" gradientUnits="userSpaceOnUse">
<stop stop-color="#37BBFE"/>
<stop offset="1" stop-color="#007DBB"/>
</linearGradient>
</defs>
		</g>

<g id="email">
<rect x="0.1" y="0.1" width="32" height="32" rx="50" ry="50" fill="#007ACC" /> 

	  <path d="M20 16C20 18.2091 18.2091 20 16 20C13.7909 20 12 18.2091 12 16C12 13.7909 13.7909 12 16 12C18.2091 12 20 13.7909 20 16ZM20 16V17.5C20 18.8807 21.1193 20 22.5 20V20C23.8807 20 25 18.8807 25 17.5V16C25 11.0294 20.9706 7 16 7C11.0294 7 7 11.0294 7 16C7 20.9706 11.0294 25 16 25H20" stroke="#000000" stroke-width="2" stroke-linecap="round" stroke-linejoin="round"/>

</g>

<g id="whatsapp">
<style type="text/css">
	.st0{fill:#FFFFFF;}
	.st1{fill:#3A559F;}
	.st2{fill:#F4F4F4;}
	.st3{fill:#FF0084;}
	.st4{fill:#0063DB;}
	.st5{fill:#00ACED;}
	.st6{fill:#FFEC06;}
	.st7{fill:#FF0000;}
	.st8{fill:#25D366;}
	.st9{fill:#0088FF;}
	.st10{fill:#314358;}
	.st11{fill:#EE6996;}
	.st12{fill:#01AEF3;}
	.st13{fill:#FFFEFF;}
	.st14{fill:#F06A35;}
	.st15{fill:#00ADEF;}
	.st16{fill:#1769FF;}
	.st17{fill:#1AB7EA;}
	.st18{fill:#6001D1;}
	.st19{fill:#E41214;}
	.st20{fill:#05CE78;}
	.st21{fill:#7B519C;}
	.st22{fill:#FF4500;}
	.st23{fill:#00F076;}
	.st24{fill:#FFC900;}
	.st25{fill:#00D6FF;}
	.st26{fill:#FF3A44;}
	.st27{fill:#FF6A36;}
	.st28{fill:#0061FE;}
	.st29{fill:#F7981C;}
	.st30{fill:#EE1B22;}
	.st31{fill:#EF3561;}
	.st32{fill:none;stroke:#FFFFFF;stroke-width:2;stroke-miterlimit:10;}
	.st33{fill:#0097D3;}
	.st34{fill:#01308A;}
	.st35{fill:#019CDE;}
	.st36{fill:#FFD049;}
	.st37{fill:#16A05D;}
	.st38{fill:#4486F4;}
	.st39{fill:none;}
	.st40{fill:#34A853;}
	.st41{fill:#4285F4;}
	.st42{fill:#FBBC05;}
	.st43{fill:#EA4335;}
</style>
<path class="st8" d="M17,0C8.7,0,2,6.7,2,15c0,3.4,1.1,6.6,3.2,9.2l-2.1,6.4c-0.1,0.4,0,0.8,0.3,1.1C3.5,31.9,3.8,32,4,32
	c0.1,0,0.3,0,0.4-0.1l6.9-3.1C13.1,29.6,15,30,17,30c8.3,0,15-6.7,15-15S25.3,0,17,0z"/>
<path class="st0" d="M25.7,20.5c-0.4,1.2-1.9,2.2-3.2,2.4C22.2,23,21.9,23,21.5,23c-0.8,0-2-0.2-4.1-1.1c-2.4-1-4.8-3.1-6.7-5.8
	L10.7,16C10.1,15.1,9,13.4,9,11.6c0-2.2,1.1-3.3,1.5-3.8c0.5-0.5,1.2-0.8,2-0.8c0.2,0,0.3,0,0.5,0c0.7,0,1.2,0.2,1.7,1.2l0.4,0.8
	c0.3,0.8,0.7,1.7,0.8,1.8c0.3,0.6,0.3,1.1,0,1.6c-0.1,0.3-0.3,0.5-0.5,0.7c-0.1,0.2-0.2,0.3-0.3,0.3c-0.1,0.1-0.1,0.1-0.2,0.2
	c0.3,0.5,0.9,1.4,1.7,2.1c1.2,1.1,2.1,1.4,2.6,1.6l0,0c0.2-0.2,0.4-0.6,0.7-0.9l0.1-0.2c0.5-0.7,1.3-0.9,2.1-0.6
	c0.4,0.2,2.6,1.2,2.6,1.2l0.2,0.1c0.3,0.2,0.7,0.3,0.9,0.7C26.2,18.5,25.9,19.8,25.7,20.5z"/>
</g>

</svg>
