<svg width="120" height="120" viewBox="0 0 120 120" fill="none" xmlns="http://www.w3.org/2000/svg">
<g id="html">
<path d="M22.1325 102.004L13.7062 7.5H106.294L97.8562 101.989L59.9437 112.5L22.1325 102.004Z" fill="#E44F26"/>
<path d="M60 104.468L90.6375 95.9738L97.845 15.2288H60V104.468Z" fill="#F1662A"/>
<path d="M60 50.2762H44.6625L43.605 38.4075H60V26.8162H30.9375L31.215 29.9287L34.0613 61.8675H60V50.2762V50.2762ZM60 80.3775L59.9475 80.3925L47.04 76.9087L46.215 67.665H34.5787L36.2025 85.86L59.9475 92.4525L60 92.4375V80.3775Z" fill="#EBEBEB"/>
<path d="M59.9587 50.2762V61.8675H74.2312L72.8887 76.9012L59.9587 80.3887V92.4487L83.7225 85.86L83.895 83.9025L86.6175 53.3887L86.9025 50.2762H59.9587V50.2762ZM59.9587 26.8162V38.4075H87.9562L88.1887 35.805L88.7175 29.9287L88.995 26.8162H59.9587V26.8162Z" fill="white"/>
</g>

<g id="github">
<path fill-rule="evenodd" clip-rule="evenodd" d="M44 0C19.69 0 0 19.69 0 44C0 63.47 12.595 79.915 30.085 85.745C32.285 86.13 33.11 84.81 33.11 83.655C33.11 82.61 33.055 79.145 33.055 75.46C22 77.495 19.14 72.765 18.26 70.29C17.765 69.025 15.62 65.12 13.75 64.075C12.21 63.25 10.01 61.215 13.695 61.16C17.16 61.105 19.635 64.35 20.46 65.67C24.42 72.325 30.745 70.455 33.275 69.3C33.66 66.44 34.815 64.515 36.08 63.415C26.29 62.315 16.06 58.52 16.06 41.69C16.06 36.905 17.765 32.945 20.57 29.865C20.13 28.765 18.59 24.255 21.01 18.205C21.01 18.205 24.695 17.05 33.11 22.715C36.63 21.725 40.37 21.23 44.11 21.23C47.85 21.23 51.59 21.725 55.11 22.715C63.525 16.995 67.21 18.205 67.21 18.205C69.63 24.255 68.09 28.765 67.65 29.865C70.455 32.945 72.16 36.85 72.16 41.69C72.16 58.575 61.875 62.315 52.085 63.415C53.68 64.79 55.055 67.43 55.055 71.555C55.055 77.44 55 82.17 55 83.655C55 84.81 55.825 86.185 58.025 85.745C66.7597 82.796 74.3497 77.1822 79.7268 69.6937C85.1039 62.2052 87.9974 53.219 88 44C88 19.69 68.31 0 44 0Z" fill="#505054"/>
</g>

<g id="figma">
<path d="M17.7083 4.16663C14.2565 4.16663 11.4583 6.96486 11.4583 10.4166C11.4583 13.8684 14.2565 16.6666 17.7083 16.6666H32.2916C35.7435 16.6666 38.5416 13.8684 38.5416 10.4166C38.5416 6.96486 35.7435 4.16663 32.2916 4.16663H17.7083Z" fill="rgb(210, 35, 8)"/>
<path d="M32.2917 18.75C28.8398 18.75 26.0417 21.5481 26.0417 25C26.0417 28.4519 28.8398 31.25 32.2917 31.25C35.7436 31.25 38.5417 28.4519 38.5417 25C38.5417 21.5481 35.7436 18.75 32.2917 18.75Z" fill="rgb(104, 191, 231)"/>
<path d="M11.4583 25C11.4583 21.5481 14.2565 18.75 17.7083 18.75H23.9583V31.25H17.7083C14.2565 31.25 11.4583 28.4519 11.4583 25Z" fill="#7572D5"/>
<path d="M17.7083 33.3334C14.2565 33.3334 11.4583 36.1315 11.4583 39.5834C11.4583 43.0352 14.2565 45.8334 17.7083 45.8334C21.1602 45.8334 23.9583 43.0352 23.9583 39.5834V33.3334H17.7083Z" fill="rgb(118, 232, 118)"/>
</g>

<g id="git">
<g clip-path="url(#clip0_1_51)">
<path d="M103.02 47.8219L57.1758 1.98038C54.5372 -0.6598 50.2552 -0.6598 47.6134 1.98038L38.0937 11.5001L50.1699 23.5763C52.9762 22.6281 56.1943 23.2642 58.4313 25.5012C60.6789 27.7525 61.3106 30.9981 60.3393 33.8134L71.9775 45.452C74.7932 44.482 78.0421 45.1095 80.291 47.3621C83.434 50.5039 83.434 55.596 80.291 58.7399C77.1471 61.8841 72.055 61.8841 68.9095 58.7399C66.5454 56.3733 65.9613 52.9013 67.1582 49.9888L56.3046 39.1352L56.3034 67.6973C57.0902 68.0863 57.8088 68.6002 58.4313 69.2189C61.5743 72.3607 61.5743 77.4532 58.4313 80.5995C55.2874 83.7422 50.1929 83.7422 47.0535 80.5995C43.9105 77.4532 43.9105 72.3611 47.0535 69.2193C47.8067 68.4658 48.7019 67.869 49.6871 67.4635V38.6352C48.7004 38.2324 47.8048 37.6353 47.0535 36.8793C44.6722 34.5013 44.0996 31.0071 45.3198 28.0831L33.4154 16.1775L1.98105 47.6099C-0.660352 50.2525 -0.660352 54.5349 1.98105 57.1755L47.8259 103.018C50.4652 105.658 54.7464 105.658 57.3891 103.018L103.019 57.3884C105.66 54.747 105.66 50.4621 103.019 47.8219" fill="#DE4C36"/>
</g>
<defs>
<clipPath id="clip0_1_51">
<rect width="105" height="105" fill="white"/>
</clipPath>
</defs>
</g>

<g id="react">
<g clip-path="url(#clip0_1_53)">
<path d="M92.9055 32.7027C91.7031 32.2886 90.4904 31.9051 89.2687 31.5523C89.4739 30.7106 89.6628 29.8791 89.8305 29.0623C92.5838 15.6483 90.7839 4.84178 84.636 1.28375C78.7415 -2.12722 69.1016 1.42949 59.3659 9.93342C58.4064 10.773 57.4681 11.6368 56.5521 12.524C55.9389 11.934 55.3148 11.3556 54.6803 10.7888C44.4767 1.69616 34.2493 -2.13608 28.1081 1.43215C22.2189 4.85374 20.475 15.0127 22.9537 27.7254C23.2003 28.9844 23.4788 30.237 23.7888 31.4819C22.3411 31.8947 20.9442 32.3342 19.6073 32.8019C7.64439 36.9881 0.00472641 43.5483 0.00472641 50.3529C0.00472641 57.3808 8.20626 64.43 20.6661 68.7043C21.6763 69.0495 22.6948 69.3692 23.7208 69.6634C23.3876 71.0042 23.0918 72.354 22.8337 73.7114C20.4706 86.2035 22.316 96.1223 28.1893 99.5222C34.2555 103.033 44.437 99.4247 54.3506 90.7268C55.1545 90.0196 55.9406 89.2925 56.7084 88.546C57.7004 89.5066 58.7189 90.4393 59.7626 91.343C69.366 99.6365 78.8501 102.985 84.7177 99.5762C90.7781 96.055 92.748 85.3995 90.1907 72.4356C89.9892 71.42 89.7633 70.4094 89.5132 69.4047C90.2282 69.1921 90.93 68.9732 91.6141 68.7455C104.567 64.4384 112.995 57.4747 112.995 50.3529C112.995 43.5235 105.109 36.919 92.9055 32.7027V32.7027ZM90.0962 64.1474C89.4783 64.3525 88.8445 64.5505 88.1983 64.7432C86.7683 60.1995 84.8386 55.3684 82.4769 50.3764C84.7305 45.5036 86.586 40.734 87.9759 36.22C89.1318 36.5558 90.2533 36.9097 91.3347 37.2832C101.791 40.8961 108.169 46.2372 108.169 50.3529C108.169 54.7367 101.281 60.4277 90.0962 64.1474V64.1474ZM85.4557 73.3765C86.5865 79.1087 86.7476 84.2916 85.9985 88.3435C85.3259 91.9844 83.9727 94.4115 82.299 95.3839C78.7385 97.4526 71.1235 94.7637 62.9109 87.6706C61.9401 86.8305 60.9927 85.9634 60.0698 85.0703C63.2539 81.5756 66.4357 77.5131 69.5412 73.0008C75.0036 72.5144 80.1641 71.7188 84.8439 70.6331C85.0694 71.5426 85.2733 72.4573 85.4557 73.3765V73.3765ZM38.5257 95.0264C35.0468 96.2592 32.2759 96.2946 30.6009 95.3254C27.0369 93.2624 25.5552 85.298 27.5762 74.6151C27.8165 73.3527 28.0915 72.0972 28.4011 70.8502C33.0293 71.8779 38.1523 72.6168 43.6275 73.0624C46.7542 77.4776 50.0278 81.5358 53.327 85.0894C52.6259 85.7703 51.9082 86.4338 51.1745 87.0793C46.7904 90.9252 42.3974 93.654 38.5257 95.0264V95.0264ZM22.2277 64.1204C16.7181 62.2302 12.168 59.7738 9.04927 57.0933C6.24658 54.6848 4.83199 52.2932 4.83199 50.3529C4.83199 46.2234 10.9657 40.9564 21.1962 37.3766C22.4378 36.9425 23.7372 36.5327 25.0856 36.1482C26.4997 40.7641 28.3543 45.5904 30.5925 50.4707C28.3252 55.4233 26.4441 60.3267 25.0163 64.997C24.0797 64.7278 23.1499 64.4355 22.2277 64.1204V64.1204ZM27.691 26.7947C25.5675 15.9031 26.9777 7.68706 30.5268 5.62497C34.3067 3.42867 42.6653 6.56011 51.4755 14.4115C52.05 14.9247 52.6152 15.4482 53.1708 15.9819C49.8879 19.52 46.6443 23.548 43.5454 27.9371C38.2313 28.4315 33.1445 29.2253 28.4678 30.2889C28.1796 29.131 27.9206 27.9661 27.691 26.7951V26.7947ZM76.4301 38.8739C75.3255 36.9589 74.1798 35.0679 72.994 33.2024C76.5991 33.66 80.0533 34.2673 83.2969 35.0098C82.3233 38.1425 81.1095 41.4175 79.6808 44.7753C78.6365 42.7867 77.5527 40.8191 76.4301 38.8739V38.8739ZM56.5543 19.4443C58.7806 21.8652 61.0104 24.5678 63.2036 27.5003C58.7546 27.2894 54.2981 27.2886 49.849 27.4977C52.0444 24.5922 54.2932 21.8931 56.5543 19.4443ZM36.551 38.9071C35.4425 40.8367 34.3789 42.792 33.3612 44.7713C31.9559 41.4255 30.7532 38.1355 29.7711 34.9584C32.9949 34.2346 36.4327 33.6427 40.0149 33.1935C38.8159 35.0705 37.6609 36.9754 36.551 38.9067V38.9071ZM40.1177 67.8569C36.4168 67.4423 32.9274 66.881 29.7045 66.1767C30.702 62.9429 31.9312 59.5829 33.367 56.1653C34.3887 58.1461 35.4566 60.1026 36.57 62.033C37.7149 64.0176 38.9004 65.9614 40.1177 67.8569ZM56.6876 81.6027C54.3996 79.1255 52.1177 76.3848 49.8892 73.4372C52.0528 73.5222 54.2583 73.5656 56.5 73.5656C58.8031 73.5656 61.0797 73.5138 63.3205 73.4137C61.1203 76.4145 58.8989 79.1592 56.6876 81.6027ZM79.7262 55.9907C81.2366 59.446 82.5095 62.7883 83.5203 65.9667C80.2444 66.7171 76.7073 67.3214 72.9804 67.7701C74.1746 65.8699 75.3311 63.9461 76.4491 61.9998C77.5858 60.0214 78.6784 58.0179 79.7262 55.9907V55.9907ZM72.268 59.5794C70.5564 62.5634 68.7487 65.4909 66.8475 68.3571C63.4038 68.6018 59.9524 68.7234 56.5 68.7216C52.9837 68.7216 49.5635 68.6118 46.27 68.3974C44.3192 65.5378 42.477 62.6053 40.7471 59.6059H40.7476C39.0259 56.6225 37.4177 53.5745 35.9265 50.4685C37.4139 47.3618 39.0172 44.3124 40.733 41.3267L40.7326 41.3271C42.4477 38.3407 44.2753 35.4206 46.2113 32.5734C49.5714 32.3182 53.0172 32.1853 56.4996 32.1853H56.5C59.9983 32.1853 63.4485 32.3195 66.8078 32.5765C68.7243 35.4195 70.5401 38.3295 72.2521 41.301C73.9736 44.2801 75.5981 47.3147 77.123 50.3999C75.6138 53.5166 73.9944 56.5783 72.268 59.5794V59.5794ZM82.2253 5.48056C86.0087 7.67067 87.4802 16.5024 85.103 28.0842C84.9512 28.8231 84.7808 29.5757 84.5954 30.339C79.9072 29.2528 74.8169 28.4452 69.4874 27.9433C66.3828 23.506 63.1656 19.4717 59.9361 15.9792C60.7825 15.1604 61.649 14.3628 62.5349 13.5871C70.8768 6.30141 78.6731 3.42468 82.2253 5.48056V5.48056ZM56.5 40.2263C62.0723 40.2263 66.5898 44.7603 66.5898 50.3529C66.5898 55.9456 62.0723 60.4795 56.5 60.4795C50.9278 60.4795 46.4103 55.9456 46.4103 50.3529C46.4103 44.7603 50.9278 40.2263 56.5 40.2263V40.2263Z" fill="#00D8FF"/>
</g>
<defs>
<clipPath id="clip0_1_53">
<rect width="113" height="101" fill="white"/>
</clipPath>
</defs>
</g>

<g id="sass">
<g clip-path="url(#clip0_1_55)">
<path d="M100.673 50.0766C96.6031 50.0975 93.0654 51.0694 90.1035 52.5063C89.0163 50.3721 87.9295 48.4708 87.738 47.076C87.5246 45.4493 87.2691 44.4561 87.5246 42.5122C87.7805 40.5683 88.9313 37.8001 88.9098 37.589C88.8888 37.3778 88.6539 36.3846 86.3099 36.3637C83.9659 36.3424 81.9413 36.8073 81.7069 37.42C81.4724 38.0326 81.025 39.4273 80.7266 40.8637C80.3217 42.9771 76.0386 50.5198 73.5881 54.471C72.7993 52.9291 72.1175 51.5765 71.968 50.499C71.7551 48.8722 71.4991 47.879 71.7551 45.9351C72.011 43.9912 73.1617 41.2235 73.1403 41.0119C73.1188 40.8007 72.8843 39.8075 70.5403 39.7866C68.1959 39.7653 66.1713 40.2302 65.9373 40.8429C65.7029 41.4559 65.447 42.8923 64.9571 44.2871C64.4667 45.6818 58.7769 58.275 57.2853 61.5285C56.6824 62.8453 56.0501 64.1487 55.3887 65.4376C55.3887 65.4376 55.3672 65.501 55.3032 65.6066C55.0954 66.0107 54.8824 66.4122 54.6643 66.811V66.8318C54.3444 67.4028 54.0035 67.9307 53.833 67.9307C53.7051 67.9307 53.4706 66.4095 53.8755 64.3387C54.7278 59.9652 56.7524 53.1615 56.7314 52.9291C56.7314 52.8022 57.1148 51.6191 55.4102 51.006C53.7476 50.3934 53.1512 51.4075 53.0017 51.4075C52.8527 51.4075 52.7458 51.7668 52.7458 51.7668C52.7458 51.7668 54.6003 44.118 49.2085 44.118C45.8418 44.118 41.1958 47.7734 38.8943 51.0694C36.278 52.4811 33.6639 53.8968 31.0521 55.3166C29.7953 56.0139 28.4951 56.7113 27.2804 57.3661C27.1949 57.2818 27.1099 57.1758 27.0244 57.0915C20.5034 50.1822 8.44203 45.3012 8.95342 36.0257C9.14537 32.6449 10.3171 23.7705 32.1178 12.9947C50.0609 4.22583 64.3392 6.65549 66.8111 12.0436C70.3484 19.7349 59.1608 34.0183 40.6204 36.0887C33.5455 36.8708 29.8373 34.1661 28.9 33.152C27.9197 32.0953 27.7703 32.0318 27.4079 32.2435C26.8115 32.5606 27.1949 33.5113 27.4079 34.0605C27.9622 35.4969 30.2422 38.0326 34.0994 39.2796C37.5091 40.378 45.7988 40.991 55.8361 37.1454C67.0666 32.8348 75.8467 20.8546 73.2682 10.8183C70.6893 0.633908 53.6411 -2.72556 37.5091 2.95799C27.9197 6.33921 17.52 11.6634 10.0402 18.594C1.15366 26.834 -0.253009 33.997 0.322365 36.9976C2.38987 47.6465 17.2006 54.5771 23.1248 59.7114C22.8264 59.8804 22.549 60.0286 22.315 60.1555C19.3527 61.6132 8.05815 67.4658 5.24526 73.6568C2.04894 80.6716 5.75711 85.7009 8.20759 86.3765C15.8154 88.4686 23.6362 84.7076 27.8343 78.4953C32.0323 72.2834 31.521 64.2119 29.5819 60.5144C29.5604 60.4722 29.5394 60.4296 29.4964 60.3875C30.2637 59.9439 31.0521 59.479 31.8194 59.0354C33.2297 58.2088 34.6578 57.4126 36.1029 56.6474C35.3781 58.6126 34.8452 60.958 34.5898 64.3387C34.2699 68.3113 35.9105 73.4665 38.063 75.4947C39.0223 76.3828 40.1516 76.4037 40.8764 76.4037C43.3908 76.4037 44.5206 74.3329 45.7778 71.8819C47.312 68.8818 48.6972 65.3954 48.6972 65.3954C48.6972 65.3954 46.971 74.8191 51.6595 74.8191C53.3641 74.8191 55.0902 72.6214 55.8576 71.5017V71.5226C55.8576 71.5226 55.9001 71.4592 55.9855 71.3114C56.156 71.0368 56.2625 70.8674 56.2625 70.8674V70.8257C56.9443 69.6421 58.479 66.9587 60.759 62.5004C63.6998 56.7534 66.5342 49.5696 66.5342 49.5696C66.5342 49.5696 66.7901 51.3232 67.6635 54.239C68.1753 55.9505 69.2401 57.831 70.0929 59.648C69.4111 60.5991 68.9847 61.127 68.9847 61.127L69.0062 61.1483C68.4518 61.8665 67.8554 62.6481 67.1946 63.4094C64.8716 66.1558 62.1017 69.3045 61.7178 70.2126C61.2699 71.2901 61.3769 72.0722 62.2296 72.7062C62.8475 73.1711 63.9553 73.234 65.085 73.1711C67.1735 73.0229 68.6437 72.5158 69.3681 72.1991C70.4978 71.7976 71.819 71.1846 73.0548 70.276C75.3353 68.6067 76.72 66.2192 76.5925 63.0714C76.5285 61.3386 75.9531 59.6059 75.2498 57.9787C75.4632 57.6833 75.6547 57.3874 75.8681 57.0915C79.4694 51.8724 82.2612 46.1462 82.2612 46.1462C82.2612 46.1462 82.5171 47.8998 83.3905 50.8161C83.8169 52.2951 84.6907 53.901 85.4575 55.4643C82.0693 58.1903 79.9808 61.3594 79.2349 63.4302C77.8927 67.2759 78.9365 69.0082 80.9185 69.4097C81.8134 69.6 83.0921 69.1772 84.0298 68.7757C85.2231 68.3956 86.6298 67.7408 87.9725 66.7684C90.2529 65.0995 92.4475 62.775 92.3195 59.6272C92.2555 58.1903 91.8721 56.7743 91.3392 55.4009C94.2161 54.2182 97.9243 53.563 102.655 54.1122C112.799 55.2953 114.802 61.5706 114.418 64.2123C114.035 66.8531 111.904 68.29 111.201 68.7336C110.497 69.1777 110.263 69.3254 110.327 69.6421C110.412 70.107 110.753 70.0862 111.35 70.0014C112.181 69.8537 116.678 67.8672 116.869 63.0075C117.189 56.7956 111.222 50.0132 100.673 50.0766V50.0766ZM22.4215 76.2346C19.0542 79.8687 14.3662 81.2421 12.3417 80.0803C10.1682 78.8333 11.0205 73.4665 15.1546 69.6213C17.669 67.2759 20.9083 65.0991 23.0608 63.7683C23.5507 63.4724 24.2755 63.0501 25.1493 62.5217C25.2983 62.437 25.3838 62.3948 25.3838 62.3948L25.8952 62.0776C27.4079 67.5713 25.9592 72.4103 22.4215 76.2346V76.2346ZM46.9285 59.7114C45.7563 62.543 43.3058 69.7903 41.8142 69.3888C40.5354 69.0508 39.7466 63.5571 41.5582 58.1269C42.4745 55.4009 44.4136 52.147 45.5433 50.8796C47.3759 48.8509 49.4005 48.1744 49.8904 48.9991C50.5087 50.0766 47.6529 57.9365 46.9285 59.7114V59.7114ZM67.1521 69.3041C66.6617 69.5578 66.1933 69.7269 65.9798 69.6C65.8309 69.5152 66.1933 69.1772 66.1933 69.1772C66.1933 69.1772 68.7292 66.473 69.7305 65.2473C70.3063 64.5291 70.9877 63.684 71.7126 62.7329V63.0075C71.7126 66.2405 68.5583 68.4169 67.1516 69.3041H67.1521ZM82.7511 65.7756C82.3887 65.5219 82.4527 64.6768 83.6674 62.0355C84.1363 61.0001 85.2441 59.2678 87.1412 57.5985C87.3541 58.2746 87.5036 58.9298 87.4821 59.5424C87.4606 63.6205 84.5202 65.1417 82.7511 65.7756Z" fill="#CD6799"/>
</g>
<defs>
<clipPath id="clip0_1_55">
<rect width="117" height="87" fill="white"/>
</clipPath>
</defs>
</g>

<g id="reduxToolkit">
<path d="M72.7792 69.5627C76.6509 69.1619 79.5882 65.8242 79.4546 61.8184C79.3214 57.8131 75.9833 54.6086 71.9779 54.6086H71.7111C67.5718 54.7422 64.3677 58.2135 64.5013 62.3525C64.6349 64.3553 65.4357 66.091 66.6374 67.2926C62.098 76.2385 55.1554 82.7807 44.7415 88.2549C37.6652 91.9934 30.3222 93.3287 22.9792 92.3943C16.971 91.593 12.298 88.923 9.3603 84.5164C5.08817 77.9742 4.68776 70.8975 8.29268 63.8213C10.8296 58.7475 14.8345 55.009 17.3714 53.1398C16.8374 51.4041 16.0361 48.4668 15.6357 46.3307C-3.72371 60.35 -1.72084 79.3094 4.15375 88.2549C8.55949 94.9311 17.505 99.0701 27.3849 99.0701C30.055 99.0701 32.7251 98.8029 35.3955 98.1357C52.4853 94.7975 65.4361 84.65 72.7792 69.5627ZM96.2775 53.0066C86.1304 41.1234 71.1771 34.5811 54.0873 34.5811H51.9513C50.7496 32.1779 48.2128 30.5754 45.4091 30.5754H45.1419C41.0033 30.709 37.7992 34.1803 37.9324 38.3197C38.066 42.325 41.4037 45.5295 45.4091 45.5295H45.6759C48.6132 45.3959 51.1501 43.5266 52.2181 40.9898H54.6214C64.7685 40.9898 74.3812 43.927 83.0599 49.6684C89.7353 54.0746 94.5419 59.816 97.2119 66.7586C99.4816 72.3664 99.348 77.8406 96.9447 82.5139C93.2066 89.5902 86.9316 93.4623 78.6537 93.4623C73.3132 93.4623 68.2398 91.8598 65.5693 90.6582C64.1009 91.9934 61.4304 94.1295 59.5611 95.4652C65.3025 98.1352 71.1771 99.6041 76.7845 99.6041C89.6017 99.6041 99.0812 92.5275 102.686 85.4512C106.558 77.707 106.291 64.3553 96.2775 53.0066ZM28.4529 71.832C28.5865 75.8377 31.9242 79.0418 35.9296 79.0418H36.1968C40.3357 78.9086 43.5398 75.4369 43.4062 71.2979C43.273 67.2922 39.9349 64.0881 35.9296 64.0881H35.6628C35.3955 64.0881 34.9947 64.0881 34.7283 64.2213C29.2542 55.1422 26.9845 45.2623 27.7857 34.5807C28.3193 26.5697 30.9898 19.6266 35.6628 13.8852C39.5345 8.94508 47.0111 6.5418 52.0849 6.40861C66.2369 6.14139 72.2447 23.7656 72.6455 30.8422C74.3812 31.2426 77.3185 32.1775 79.3214 32.8451C77.7189 11.2156 64.3677 0 51.5509 0C39.5345 0 28.4529 8.67869 24.0468 21.4963C17.9054 38.5865 21.9107 55.009 29.3874 67.9602C28.7201 68.8947 28.3193 70.3635 28.4529 71.8324V71.832Z" fill="#764ABC"/>
</g>

<g id="styledComponent">
<path d="M37.2591 6.25L36.9888 7.64963C36.5708 10.3021 36.7221 11.061 37.8682 12.0454L38.9747 12.9546L37.8286 18.0305C37.1438 21.0588 36.3041 23.5968 35.7707 24.4308C35.313 25.1503 34.7796 26.2099 34.6642 26.7791C34.4732 27.4592 33.8245 28.1429 32.8334 28.7478C31.9576 29.2418 30.2385 30.5663 29.0203 31.6294C28.0472 32.4993 27.3769 33.0326 27.0129 33.2617L25.8235 34.196C25.4415 34.8046 25.2253 35.295 25.1424 35.6672C25.0595 36.0503 25.1063 36.3044 25.2289 36.4905C25.3478 36.6695 25.5532 36.7948 25.8343 36.8736C26.1671 36.951 26.5097 36.9788 26.8507 36.9559C27.6222 36.9035 28.3858 36.7691 29.1284 36.555C29.3807 36.487 29.5789 36.4225 29.7519 36.3653C30.0186 36.0395 30.6349 35.4238 31.7269 34.3535C34.6246 31.5149 35.731 29.9613 34.5885 30.3802C34.1669 30.5305 34.3579 30.1511 35.0823 29.3922C36.6104 27.9138 37.4862 25.6801 39.317 18.6748C40.7659 13.1443 40.7659 13.0656 41.8327 13.0656C42.3336 13.0656 43.75 13.1515 43.75 13.1515V6.25H40.4992H37.2591ZM24.4216 18.0806C23.3692 18.0735 21.1058 19.6664 14.3303 25.1611C14.0383 25.8519 14.0131 26.328 14.1464 26.6359C14.2329 26.8471 14.3915 26.9938 14.6114 27.1012C14.8276 27.2086 15.1087 27.2731 15.4187 27.2981C16.035 27.3518 16.763 27.2552 17.3504 27.1406L17.7469 27.0511C17.8826 26.8704 18.0608 26.7254 18.2659 26.6287C18.6839 26.3996 20.4391 24.8103 22.1943 23.1064C25.2829 19.9993 26.0073 18.5961 24.7495 18.1415C24.6463 18.1007 24.5326 18.08 24.4216 18.0806ZM32.336 20.2391C31.4098 20.2642 29.7411 21.3309 26.8831 23.5968C25.4487 24.753 24.5405 25.3759 24.0539 25.5047L22.1654 26.9867C21.4554 28.2753 21.3509 29.0736 21.5383 29.5139C21.5852 29.6225 21.6533 29.7208 21.7387 29.8031C21.8241 29.8855 21.925 29.9502 22.0357 29.9936C22.311 30.1015 22.6046 30.1562 22.9006 30.1546C23.608 30.1471 24.3112 30.0448 24.991 29.8504C25.3453 29.7559 25.6952 29.6461 26.0398 29.521L26.1443 29.4781L26.3353 29.3779C26.6957 28.9161 27.5246 28.0462 28.5626 27.044C31.8423 23.9011 33.5181 21.6674 33.1758 20.8333C33.0208 20.4288 32.7541 20.2248 32.336 20.2391ZM23.5998 24.1051C23.3331 24.1337 22.7349 24.5919 21.6573 25.5298C20.1003 26.8972 18.4028 27.6847 17.8154 27.3339C17.6788 27.3645 17.5419 27.3932 17.4045 27.4198C16.8062 27.5379 16.0602 27.6346 15.3934 27.5809C15.0793 27.562 14.7714 27.4855 14.4852 27.3554C14.2153 27.2328 13.9999 27.0164 13.8797 26.7468C13.7464 26.4247 13.7464 26.0238 13.8978 25.5119L11.5551 27.4234L6.2536 31.7798V38.8424L23.6251 25.2506C23.6217 25.1018 23.6411 24.9533 23.6827 24.8103C23.8161 24.3306 23.8089 24.0872 23.5998 24.1087V24.1051ZM31.0746 26.3925C30.8115 26.3925 30.3718 26.7612 29.669 27.5021C28.714 28.5152 27.2111 29.496 26.4146 29.6964L26.292 29.7609C26.1613 29.8145 26.0291 29.8646 25.8956 29.9112C25.6794 29.9828 25.3982 30.0687 25.0739 30.1546C24.4252 30.33 23.6179 30.4911 22.897 30.4732C22.5572 30.4728 22.2207 30.4072 21.9059 30.2799C21.6093 30.1585 21.3716 29.9275 21.2428 29.6356C21.0338 29.138 21.1167 28.44 21.5744 27.4485L6.25 39.4366V43.75H12.9823L27.2615 32.6103C27.6327 32.2022 28.1914 31.6438 28.9446 30.9457C30.9629 29.0879 31.4206 28.4472 31.4206 27.4986C31.4206 26.7612 31.3377 26.3889 31.0746 26.3889V26.3925ZM34.4732 33.3727L33.2514 34.5826C32.5667 35.2269 31.3449 36.0216 30.5088 36.3617L30.343 36.4333L30.3322 36.4512L30.2961 36.487C30.2637 36.512 30.2493 36.5156 30.2241 36.5263C29.8903 36.6518 29.5512 36.7629 29.2077 36.8592C28.4441 37.08 27.6586 37.218 26.8651 37.2709C26.4899 37.2948 26.1132 37.2622 25.7478 37.1743C25.4307 37.1049 25.1508 36.9213 24.9622 36.6588C24.7892 36.3939 24.7387 36.0395 24.836 35.6028C24.9134 35.2919 25.0284 34.9914 25.1784 34.7079L13.6563 43.75H28.9807L30.8115 41.6667C33.3271 38.7529 34.4732 36.6695 34.4732 34.8869V33.3727Z" fill="#7572D5"/>
</g>

<g id="css">
<path d="M22.1325 101.154L13.71 7.4375H106.29L97.8562 101.139L59.9437 111.562L22.1325 101.154Z" fill="#1572B6"/>
<path d="M60 103.597L90.6375 95.174L97.845 15.1019H60V103.597Z" fill="#33A9DC"/>
<path d="M60 49.054H75.3375L76.395 37.2842H60V25.7896H89.0625L88.785 28.8724L85.9387 60.5487H60V49.054V49.054Z" fill="white"/>
<path d="M60.0712 78.9045L60.0187 78.9193L47.1112 75.4609L46.2862 66.2942H34.65L36.2737 84.3413L60.015 90.8788L60.0712 90.864V78.9045V78.9045Z" fill="#EBEBEB"/>
<path d="M74.3512 60.0615L72.9563 75.4534L60.03 78.9119V90.8714L83.79 84.3412L83.9663 82.4001L85.98 60.0615H74.3512V60.0615Z" fill="white"/>
<path d="M60.0413 25.7896V37.2842H32.0438L31.8113 34.6997L31.2825 28.8724L31.005 25.7896H60.0413V25.7896ZM60 49.054V60.5487H47.2538L47.0213 57.9642L46.4963 52.1369L46.2188 49.054H60V49.054Z" fill="#EBEBEB"/>
</g>

<g id="js">
<rect x="7.5" y="7.5" width="105" height="105" rx="20" ry="20" fill="#F5DE19" />
<path d="M78.0338 89.5313C78.9284 91.3485 80.3183 92.8759 82.0434 93.9375C83.7684 94.9991 85.7583 95.5515 87.7838 95.5313C91.8713 95.5313 94.485 93.4875 94.485 90.6562C94.485 87.2812 91.8 86.0738 87.3 84.105L84.8325 83.0475C77.7075 80.0138 72.9825 76.215 72.9825 68.1825C72.9825 60.7838 78.6075 55.1475 87.4313 55.1475C90.2876 54.9412 93.1416 55.5805 95.637 56.9856C98.1324 58.3907 100.159 60.4994 101.464 63.0488L93.75 67.98C93.2476 66.716 92.3728 65.6345 91.2416 64.879C90.1104 64.1236 88.7763 63.7298 87.4163 63.75C86.8229 63.6906 86.2236 63.7555 85.6567 63.9404C85.0897 64.1254 84.5675 64.4265 84.1233 64.8244C83.6792 65.2224 83.3228 65.7085 83.0769 66.2518C82.8309 66.7951 82.7009 67.3837 82.695 67.98C82.695 70.9388 84.5288 72.1388 88.7625 73.98L91.23 75.0375C99.615 78.6338 104.355 82.2975 104.355 90.5363C104.355 99.42 97.3763 104.287 88.005 104.287C84.3536 104.52 80.713 103.691 77.5223 101.901C74.3317 100.11 71.7274 97.4342 70.0238 94.1962L78.0338 89.5313ZM43.1775 90.3863C44.7263 93.135 46.1363 95.46 49.5263 95.46C52.7663 95.46 54.8138 94.1925 54.8138 89.2612V55.71H64.68V89.3925C64.68 99.6075 58.68 104.258 49.9463 104.258C46.8591 104.426 43.7931 103.657 41.1513 102.051C38.5096 100.444 36.4157 98.0761 35.145 95.2575L43.1775 90.3863Z" fill="black"/>

</g>

<g id="tailwind">
<path d="M36.8438 56.0844C40.6646 40.801 50.2167 33.1594 65.5 33.1594C88.425 33.1594 91.2906 50.3531 102.753 53.2187C110.395 55.1292 117.081 52.2635 122.812 44.6219C118.992 59.9052 109.44 67.5469 94.1562 67.5469C71.2313 67.5469 68.3656 50.3531 56.9031 47.4875C49.2615 45.5771 42.575 48.4427 36.8438 56.0844ZM8.1875 90.4719C12.0083 75.1885 21.5604 67.5469 36.8438 67.5469C59.7687 67.5469 62.6344 84.7406 74.0969 87.6062C81.7385 89.5167 88.425 86.651 94.1562 79.0094C90.3354 94.2927 80.7833 101.934 65.5 101.934C42.575 101.934 39.7094 84.7406 28.2469 81.875C20.6052 79.9646 13.9187 82.8302 8.1875 90.4719Z" fill="#44A8B3"/>
</g>

<g id="vscode">
<path d="M101.535 17.605L81.354 7.88899C80.2143 7.33948 78.9319 7.15814 77.6846 7.37011C76.4372 7.58208 75.2867 8.17686 74.3925 9.07199L8.33001 69.3C7.52848 70.0273 7.04868 71.0432 6.99617 72.1243C6.94366 73.2053 7.32274 74.2629 8.05001 75.0645C8.13751 75.159 8.22501 75.25 8.31951 75.334L13.713 80.234C14.4178 80.8754 15.325 81.2497 16.277 81.2919C17.229 81.3341 18.1658 81.0416 18.9245 80.465L98.497 20.125C99.098 19.6689 99.8145 19.3897 100.566 19.3186C101.317 19.2476 102.073 19.3877 102.749 19.7231C103.424 20.0585 103.993 20.5758 104.391 21.217C104.789 21.8581 105 22.5975 105 23.352V23.1175C105 21.9656 104.675 20.8372 104.062 19.862C103.449 18.8868 102.573 18.1045 101.535 17.605V17.605Z" fill="#0065A9"/>
<path d="M101.535 94.395L81.354 104.115C80.214 104.662 78.932 104.843 77.685 104.631C76.438 104.419 75.2875 103.825 74.3925 102.932L8.33001 42.7C7.52848 41.9727 7.04868 40.9568 6.99617 39.8758C6.94366 38.7947 7.32274 37.7371 8.05001 36.9355C8.13751 36.841 8.22501 36.75 8.31951 36.666L13.713 31.766C14.4185 31.1219 15.3278 30.7459 16.2821 30.7037C17.2365 30.6615 18.1754 30.9557 18.935 31.535L98.497 91.875C99.098 92.3311 99.8145 92.6104 100.566 92.6814C101.317 92.7524 102.073 92.6123 102.749 92.2769C103.424 91.9415 103.993 91.4242 104.391 90.783C104.789 90.1419 105 89.4025 105 88.648V88.9C104.996 90.0488 104.669 91.1733 104.057 92.1451C103.444 93.1168 102.57 93.8965 101.535 94.395V94.395Z" fill="#007ACC"/>
<path d="M81.354 104.114C80.214 104.662 78.9319 104.843 77.6849 104.631C76.4379 104.419 75.2875 103.825 74.3925 102.931C74.8951 103.428 75.5329 103.764 76.2261 103.899C76.9192 104.034 77.6368 103.962 78.289 103.691C78.9411 103.42 79.4988 102.963 79.8921 102.376C80.2854 101.79 80.4969 101.1 80.5 100.394V11.606C80.5006 10.8965 80.2906 10.2028 79.8966 9.61274C79.5026 9.02271 78.9423 8.56288 78.2868 8.29152C77.6312 8.02016 76.9099 7.94946 76.2141 8.0884C75.5184 8.22734 74.8795 8.56965 74.3785 9.07197C75.2728 8.17717 76.4231 7.58235 77.6702 7.3698C78.9174 7.15724 80.1997 7.33744 81.34 7.88547L101.517 17.5875C102.559 18.0845 103.438 18.8657 104.054 19.8411C104.67 20.8165 104.998 21.9463 105 23.1V88.9C105 90.0528 104.675 91.1822 104.061 92.1581C103.447 93.134 102.571 93.9167 101.531 94.416L81.354 104.114Z" fill="#1F9CF0"/>
</g>

<g id="typeScript"> 
<rect x="7.5" y="7.5" width="105" height="105" rx="20" ry="20" fill="#007ACC" /> 
 <path d="M5 25V45H45V5H5V25ZM37.235 23.4067C38.2517 23.66 39.025 24.1117 39.7367 24.8483C40.105 25.2417 40.6517 25.9583 40.695 26.1317C40.7083 26.1817 38.9683 27.3483 37.915 28.0033C37.8767 28.0283 37.7233 27.8633 37.5533 27.61C37.0367 26.86 36.4983 26.5367 35.6733 26.48C34.46 26.3967 33.68 27.0317 33.6867 28.0917C33.6756 28.3523 33.7343 28.6112 33.8567 28.8417C34.1233 29.3933 34.62 29.725 36.1733 30.3967C39.0383 31.63 40.2633 32.4417 41.025 33.5967C41.875 34.885 42.0667 36.9433 41.4883 38.4733C40.855 40.1367 39.28 41.2667 37.0633 41.64C36.3783 41.7617 34.7533 41.7433 34.0167 41.61C32.41 41.3233 30.8867 40.53 29.9467 39.4883C29.5783 39.0833 28.86 38.0217 28.905 37.9467C28.9233 37.92 29.0883 37.8183 29.2717 37.7117C29.4517 37.61 30.1233 37.2217 30.7583 36.8533L31.9083 36.1867L32.15 36.5433C32.4867 37.0567 33.2217 37.7617 33.6667 37.9967C34.9433 38.67 36.695 38.575 37.5583 37.8C37.7319 37.6538 37.8694 37.4693 37.9599 37.2612C38.0504 37.053 38.0915 36.8267 38.08 36.6C38.08 36.1367 38.0217 35.9333 37.78 35.5833C37.47 35.14 36.835 34.7667 35.0317 33.9833C32.9683 33.095 32.08 32.5433 31.2667 31.6667C30.759 31.0881 30.3841 30.4055 30.1683 29.6667C30.0167 29.1017 29.9783 27.685 30.0983 27.115C30.5233 25.12 32.0283 23.7317 34.2 23.3183C34.905 23.185 36.5433 23.235 37.235 23.4067ZM27.845 25.0767L27.8583 26.715H22.65V41.5083H18.9667V26.715H13.7633V25.1083C13.7633 24.2183 13.7817 23.475 13.8067 23.4583C13.8267 23.4317 16.995 23.4183 20.835 23.425L27.8267 23.445L27.845 25.0767Z" fill="black"/>

<!-- <text x="35" y="80" fill="black" font-size="55" font-family="Arial" font-weight="bold">TS</text> -->

</g>

<!-- social -->
<g id="linkedin">
<g clip-path="url(#clip0_1_188)">
<path d="M15 0.599976C7.04698 0.599976 0.599976 7.04698 0.599976 15C0.599976 22.953 7.04698 29.4 15 29.4C22.953 29.4 29.4 22.953 29.4 15C29.4 7.04698 22.953 0.599976 15 0.599976ZM11.475 20.9685H8.55898V11.5845H11.475V20.9685ZM9.99898 10.4325C9.07798 10.4325 8.48248 9.77998 8.48248 8.97298C8.48248 8.14948 9.09598 7.51648 10.0365 7.51648C10.977 7.51648 11.553 8.14948 11.571 8.97298C11.571 9.77998 10.977 10.4325 9.99898 10.4325ZM22.125 20.9685H19.209V15.768C19.209 14.5575 18.786 13.7355 17.7315 13.7355C16.926 13.7355 16.4475 14.292 16.236 14.8275C16.158 15.018 16.1385 15.288 16.1385 15.5565V20.967H13.221V14.577C13.221 13.4055 13.1835 12.426 13.1445 11.583H15.678L15.8115 12.8865H15.87C16.254 12.2745 17.1945 11.3715 18.768 11.3715C20.6865 11.3715 22.125 12.657 22.125 15.42V20.9685V20.9685Z" fill="#34348f"/>
</g>
<defs>
<clipPath id="clip0_1_188">
<rect width="50" height="50" fill="white"/>
</clipPath>
</defs>
</g>

<g id="telegram">
				<circle cx="16" cy="16" r="14" fill="url(#paint0_linear_87_7225)"/>
<path d="M22.9866 10.2088C23.1112 9.40332 22.3454 8.76755 21.6292 9.082L7.36482 15.3448C6.85123 15.5703 6.8888 16.3483 7.42147 16.5179L10.3631 17.4547C10.9246 17.6335 11.5325 17.541 12.0228 17.2023L18.655 12.6203C18.855 12.4821 19.073 12.7665 18.9021 12.9426L14.1281 17.8646C13.665 18.3421 13.7569 19.1512 14.314 19.5005L19.659 22.8523C20.2585 23.2282 21.0297 22.8506 21.1418 22.1261L22.9866 10.2088Z" fill="white"/>
<defs>
<linearGradient id="paint0_linear_87_7225" x1="25" y1="2" x2="25" y2="30" gradientUnits="userSpaceOnUse">
<stop stop-color="#37BBFE"/>
<stop offset="1" stop-color="#007DBB"/>
</linearGradient>
</defs>
		</g>

<g id="email">
<rect x="0.1" y="0.1" width="32" height="32" rx="50" ry="50" fill="#007ACC" /> 

	  <path d="M20 16C20 18.2091 18.2091 20 16 20C13.7909 20 12 18.2091 12 16C12 13.7909 13.7909 12 16 12C18.2091 12 20 13.7909 20 16ZM20 16V17.5C20 18.8807 21.1193 20 22.5 20V20C23.8807 20 25 18.8807 25 17.5V16C25 11.0294 20.9706 7 16 7C11.0294 7 7 11.0294 7 16C7 20.9706 11.0294 25 16 25H20" stroke="#000000" stroke-width="2" stroke-linecap="round" stroke-linejoin="round"/>

</g>

<g id="whatsapp">
<style type="text/css">
	.st0{fill:#FFFFFF;}
	.st1{fill:#3A559F;}
	.st2{fill:#F4F4F4;}
	.st3{fill:#FF0084;}
	.st4{fill:#0063DB;}
	.st5{fill:#00ACED;}
	.st6{fill:#FFEC06;}
	.st7{fill:#FF0000;}
	.st8{fill:#25D366;}
	.st9{fill:#0088FF;}
	.st10{fill:#314358;}
	.st11{fill:#EE6996;}
	.st12{fill:#01AEF3;}
	.st13{fill:#FFFEFF;}
	.st14{fill:#F06A35;}
	.st15{fill:#00ADEF;}
	.st16{fill:#1769FF;}
	.st17{fill:#1AB7EA;}
	.st18{fill:#6001D1;}
	.st19{fill:#E41214;}
	.st20{fill:#05CE78;}
	.st21{fill:#7B519C;}
	.st22{fill:#FF4500;}
	.st23{fill:#00F076;}
	.st24{fill:#FFC900;}
	.st25{fill:#00D6FF;}
	.st26{fill:#FF3A44;}
	.st27{fill:#FF6A36;}
	.st28{fill:#0061FE;}
	.st29{fill:#F7981C;}
	.st30{fill:#EE1B22;}
	.st31{fill:#EF3561;}
	.st32{fill:none;stroke:#FFFFFF;stroke-width:2;stroke-miterlimit:10;}
	.st33{fill:#0097D3;}
	.st34{fill:#01308A;}
	.st35{fill:#019CDE;}
	.st36{fill:#FFD049;}
	.st37{fill:#16A05D;}
	.st38{fill:#4486F4;}
	.st39{fill:none;}
	.st40{fill:#34A853;}
	.st41{fill:#4285F4;}
	.st42{fill:#FBBC05;}
	.st43{fill:#EA4335;}
</style>
<path class="st8" d="M17,0C8.7,0,2,6.7,2,15c0,3.4,1.1,6.6,3.2,9.2l-2.1,6.4c-0.1,0.4,0,0.8,0.3,1.1C3.5,31.9,3.8,32,4,32
	c0.1,0,0.3,0,0.4-0.1l6.9-3.1C13.1,29.6,15,30,17,30c8.3,0,15-6.7,15-15S25.3,0,17,0z"/>
<path class="st0" d="M25.7,20.5c-0.4,1.2-1.9,2.2-3.2,2.4C22.2,23,21.9,23,21.5,23c-0.8,0-2-0.2-4.1-1.1c-2.4-1-4.8-3.1-6.7-5.8
	L10.7,16C10.1,15.1,9,13.4,9,11.6c0-2.2,1.1-3.3,1.5-3.8c0.5-0.5,1.2-0.8,2-0.8c0.2,0,0.3,0,0.5,0c0.7,0,1.2,0.2,1.7,1.2l0.4,0.8
	c0.3,0.8,0.7,1.7,0.8,1.8c0.3,0.6,0.3,1.1,0,1.6c-0.1,0.3-0.3,0.5-0.5,0.7c-0.1,0.2-0.2,0.3-0.3,0.3c-0.1,0.1-0.1,0.1-0.2,0.2
	c0.3,0.5,0.9,1.4,1.7,2.1c1.2,1.1,2.1,1.4,2.6,1.6l0,0c0.2-0.2,0.4-0.6,0.7-0.9l0.1-0.2c0.5-0.7,1.3-0.9,2.1-0.6
	c0.4,0.2,2.6,1.2,2.6,1.2l0.2,0.1c0.3,0.2,0.7,0.3,0.9,0.7C26.2,18.5,25.9,19.8,25.7,20.5z"/>
</g>

</svg>
